<?xml version="1.0" encoding="utf-8" standalone="no"?>
<!DOCTYPE svg PUBLIC "-//W3C//DTD SVG 1.1//EN"
  "http://www.w3.org/Graphics/SVG/1.1/DTD/svg11.dtd">
<svg xmlns:xlink="http://www.w3.org/1999/xlink" width="460.8pt" height="288pt" viewBox="0 0 460.8 288" xmlns="http://www.w3.org/2000/svg" version="1.1">
 <metadata>
  <rdf:RDF xmlns:dc="http://purl.org/dc/elements/1.1/" xmlns:cc="http://creativecommons.org/ns#" xmlns:rdf="http://www.w3.org/1999/02/22-rdf-syntax-ns#">
   <cc:Work>
    <dc:type rdf:resource="http://purl.org/dc/dcmitype/StillImage"/>
    <dc:date>2024-08-12T10:41:46.503515</dc:date>
    <dc:format>image/svg+xml</dc:format>
    <dc:creator>
     <cc:Agent>
      <dc:title>Matplotlib v3.9.0, https://matplotlib.org/</dc:title>
     </cc:Agent>
    </dc:creator>
   </cc:Work>
  </rdf:RDF>
 </metadata>
 <defs>
  <style type="text/css">*{stroke-linejoin: round; stroke-linecap: butt}</style>
 </defs>
 <g id="figure_1">
  <g id="patch_1">
   <path d="M 0 288 
L 460.8 288 
L 460.8 0 
L 0 0 
z
" style="fill: #ffffff"/>
  </g>
  <g id="axes_1">
   <g id="patch_2">
    <path d="M 55.772054 107.44 
L 225 107.44 
L 225 26.88 
L 55.772054 26.88 
z
" style="fill: #ffffff"/>
   </g>
   <g id="matplotlib.axis_1">
    <g id="xtick_1">
     <g id="line2d_1">
      <defs>
       <path id="m12db4833c5" d="M 0 0 
L 0 3.5 
" style="stroke: #000000; stroke-width: 0.8"/>
      </defs>
      <g>
       <use xlink:href="#m12db4833c5" x="55.772054" y="107.44" style="stroke: #000000; stroke-width: 0.8"/>
      </g>
     </g>
     <g id="text_1">
      <!-- 0 -->
      <g transform="translate(52.590804 122.038438) scale(0.1 -0.1)">
       <defs>
        <path id="DejaVuSans-30" d="M 2034 4250 
Q 1547 4250 1301 3770 
Q 1056 3291 1056 2328 
Q 1056 1369 1301 889 
Q 1547 409 2034 409 
Q 2525 409 2770 889 
Q 3016 1369 3016 2328 
Q 3016 3291 2770 3770 
Q 2525 4250 2034 4250 
z
M 2034 4750 
Q 2819 4750 3233 4129 
Q 3647 3509 3647 2328 
Q 3647 1150 3233 529 
Q 2819 -91 2034 -91 
Q 1250 -91 836 529 
Q 422 1150 422 2328 
Q 422 3509 836 4129 
Q 1250 4750 2034 4750 
z
" transform="scale(0.015625)"/>
       </defs>
       <use xlink:href="#DejaVuSans-30"/>
      </g>
     </g>
    </g>
    <g id="xtick_2">
     <g id="line2d_2">
      <g>
       <use xlink:href="#m12db4833c5" x="98.614572" y="107.44" style="stroke: #000000; stroke-width: 0.8"/>
      </g>
     </g>
     <g id="text_2">
      <!-- 20 -->
      <g transform="translate(92.252072 122.038438) scale(0.1 -0.1)">
       <defs>
        <path id="DejaVuSans-32" d="M 1228 531 
L 3431 531 
L 3431 0 
L 469 0 
L 469 531 
Q 828 903 1448 1529 
Q 2069 2156 2228 2338 
Q 2531 2678 2651 2914 
Q 2772 3150 2772 3378 
Q 2772 3750 2511 3984 
Q 2250 4219 1831 4219 
Q 1534 4219 1204 4116 
Q 875 4013 500 3803 
L 500 4441 
Q 881 4594 1212 4672 
Q 1544 4750 1819 4750 
Q 2544 4750 2975 4387 
Q 3406 4025 3406 3419 
Q 3406 3131 3298 2873 
Q 3191 2616 2906 2266 
Q 2828 2175 2409 1742 
Q 1991 1309 1228 531 
z
" transform="scale(0.015625)"/>
       </defs>
       <use xlink:href="#DejaVuSans-32"/>
       <use xlink:href="#DejaVuSans-30" x="63.623047"/>
      </g>
     </g>
    </g>
    <g id="xtick_3">
     <g id="line2d_3">
      <g>
       <use xlink:href="#m12db4833c5" x="141.45709" y="107.44" style="stroke: #000000; stroke-width: 0.8"/>
      </g>
     </g>
     <g id="text_3">
      <!-- 40 -->
      <g transform="translate(135.09459 122.038438) scale(0.1 -0.1)">
       <defs>
        <path id="DejaVuSans-34" d="M 2419 4116 
L 825 1625 
L 2419 1625 
L 2419 4116 
z
M 2253 4666 
L 3047 4666 
L 3047 1625 
L 3713 1625 
L 3713 1100 
L 3047 1100 
L 3047 0 
L 2419 0 
L 2419 1100 
L 313 1100 
L 313 1709 
L 2253 4666 
z
" transform="scale(0.015625)"/>
       </defs>
       <use xlink:href="#DejaVuSans-34"/>
       <use xlink:href="#DejaVuSans-30" x="63.623047"/>
      </g>
     </g>
    </g>
    <g id="xtick_4">
     <g id="line2d_4">
      <g>
       <use xlink:href="#m12db4833c5" x="184.299608" y="107.44" style="stroke: #000000; stroke-width: 0.8"/>
      </g>
     </g>
     <g id="text_4">
      <!-- 60 -->
      <g transform="translate(177.937108 122.038438) scale(0.1 -0.1)">
       <defs>
        <path id="DejaVuSans-36" d="M 2113 2584 
Q 1688 2584 1439 2293 
Q 1191 2003 1191 1497 
Q 1191 994 1439 701 
Q 1688 409 2113 409 
Q 2538 409 2786 701 
Q 3034 994 3034 1497 
Q 3034 2003 2786 2293 
Q 2538 2584 2113 2584 
z
M 3366 4563 
L 3366 3988 
Q 3128 4100 2886 4159 
Q 2644 4219 2406 4219 
Q 1781 4219 1451 3797 
Q 1122 3375 1075 2522 
Q 1259 2794 1537 2939 
Q 1816 3084 2150 3084 
Q 2853 3084 3261 2657 
Q 3669 2231 3669 1497 
Q 3669 778 3244 343 
Q 2819 -91 2113 -91 
Q 1303 -91 875 529 
Q 447 1150 447 2328 
Q 447 3434 972 4092 
Q 1497 4750 2381 4750 
Q 2619 4750 2861 4703 
Q 3103 4656 3366 4563 
z
" transform="scale(0.015625)"/>
       </defs>
       <use xlink:href="#DejaVuSans-36"/>
       <use xlink:href="#DejaVuSans-30" x="63.623047"/>
      </g>
     </g>
    </g>
    <g id="text_5">
     <!-- n -->
     <g transform="translate(137.217277 135.716563) scale(0.1 -0.1)">
      <defs>
       <path id="DejaVuSans-6e" d="M 3513 2113 
L 3513 0 
L 2938 0 
L 2938 2094 
Q 2938 2591 2744 2837 
Q 2550 3084 2163 3084 
Q 1697 3084 1428 2787 
Q 1159 2491 1159 1978 
L 1159 0 
L 581 0 
L 581 3500 
L 1159 3500 
L 1159 2956 
Q 1366 3272 1645 3428 
Q 1925 3584 2291 3584 
Q 2894 3584 3203 3211 
Q 3513 2838 3513 2113 
z
" transform="scale(0.015625)"/>
      </defs>
      <use xlink:href="#DejaVuSans-6e"/>
     </g>
    </g>
   </g>
   <g id="matplotlib.axis_2">
    <g id="ytick_1">
     <g id="line2d_5">
      <defs>
       <path id="me982ec64fe" d="M 0 0 
L -3.5 0 
" style="stroke: #000000; stroke-width: 0.8"/>
      </defs>
      <g>
       <use xlink:href="#me982ec64fe" x="55.772054" y="105.071186" style="stroke: #000000; stroke-width: 0.8"/>
      </g>
     </g>
     <g id="text_6">
      <!-- $\mathdefault{10^{-1}}$ -->
      <g transform="translate(25.272054 108.870405) scale(0.1 -0.1)">
       <defs>
        <path id="DejaVuSans-31" d="M 794 531 
L 1825 531 
L 1825 4091 
L 703 3866 
L 703 4441 
L 1819 4666 
L 2450 4666 
L 2450 531 
L 3481 531 
L 3481 0 
L 794 0 
L 794 531 
z
" transform="scale(0.015625)"/>
        <path id="DejaVuSans-2212" d="M 678 2272 
L 4684 2272 
L 4684 1741 
L 678 1741 
L 678 2272 
z
" transform="scale(0.015625)"/>
       </defs>
       <use xlink:href="#DejaVuSans-31" transform="translate(0 0.684375)"/>
       <use xlink:href="#DejaVuSans-30" transform="translate(63.623047 0.684375)"/>
       <use xlink:href="#DejaVuSans-2212" transform="translate(128.203125 38.965625) scale(0.7)"/>
       <use xlink:href="#DejaVuSans-31" transform="translate(186.855469 38.965625) scale(0.7)"/>
      </g>
     </g>
    </g>
    <g id="ytick_2">
     <g id="line2d_6">
      <g>
       <use xlink:href="#me982ec64fe" x="55.772054" y="83.751861" style="stroke: #000000; stroke-width: 0.8"/>
      </g>
     </g>
     <g id="text_7">
      <!-- $\mathdefault{10^{0}}$ -->
      <g transform="translate(31.172054 87.55108) scale(0.1 -0.1)">
       <use xlink:href="#DejaVuSans-31" transform="translate(0 0.765625)"/>
       <use xlink:href="#DejaVuSans-30" transform="translate(63.623047 0.765625)"/>
       <use xlink:href="#DejaVuSans-30" transform="translate(128.203125 39.046875) scale(0.7)"/>
      </g>
     </g>
    </g>
    <g id="ytick_3">
     <g id="line2d_7">
      <g>
       <use xlink:href="#me982ec64fe" x="55.772054" y="30.260584" style="stroke: #000000; stroke-width: 0.8"/>
      </g>
     </g>
     <g id="text_8">
      <!-- $\mathdefault{10^{1}}$ -->
      <g transform="translate(31.172054 34.059802) scale(0.1 -0.1)">
       <use xlink:href="#DejaVuSans-31" transform="translate(0 0.684375)"/>
       <use xlink:href="#DejaVuSans-30" transform="translate(63.623047 0.684375)"/>
       <use xlink:href="#DejaVuSans-31" transform="translate(128.203125 38.965625) scale(0.7)"/>
      </g>
     </g>
    </g>
    <g id="ytick_4">
     <g id="line2d_8">
      <defs>
       <path id="m2112e36bcc" d="M 0 0 
L -2 0 
" style="stroke: #000000; stroke-width: 0.6"/>
      </defs>
      <g>
       <use xlink:href="#m2112e36bcc" x="55.772054" y="102.702372" style="stroke: #000000; stroke-width: 0.6"/>
      </g>
     </g>
    </g>
    <g id="ytick_5">
     <g id="line2d_9">
      <g>
       <use xlink:href="#m2112e36bcc" x="55.772054" y="100.333558" style="stroke: #000000; stroke-width: 0.6"/>
      </g>
     </g>
    </g>
    <g id="ytick_6">
     <g id="line2d_10">
      <g>
       <use xlink:href="#m2112e36bcc" x="55.772054" y="97.964744" style="stroke: #000000; stroke-width: 0.6"/>
      </g>
     </g>
    </g>
    <g id="ytick_7">
     <g id="line2d_11">
      <g>
       <use xlink:href="#m2112e36bcc" x="55.772054" y="95.59593" style="stroke: #000000; stroke-width: 0.6"/>
      </g>
     </g>
    </g>
    <g id="ytick_8">
     <g id="line2d_12">
      <g>
       <use xlink:href="#m2112e36bcc" x="55.772054" y="93.227116" style="stroke: #000000; stroke-width: 0.6"/>
      </g>
     </g>
    </g>
    <g id="ytick_9">
     <g id="line2d_13">
      <g>
       <use xlink:href="#m2112e36bcc" x="55.772054" y="90.858303" style="stroke: #000000; stroke-width: 0.6"/>
      </g>
     </g>
    </g>
    <g id="ytick_10">
     <g id="line2d_14">
      <g>
       <use xlink:href="#m2112e36bcc" x="55.772054" y="88.489489" style="stroke: #000000; stroke-width: 0.6"/>
      </g>
     </g>
    </g>
    <g id="ytick_11">
     <g id="line2d_15">
      <g>
       <use xlink:href="#m2112e36bcc" x="55.772054" y="86.120675" style="stroke: #000000; stroke-width: 0.6"/>
      </g>
     </g>
    </g>
    <g id="ytick_12">
     <g id="line2d_16">
      <g>
       <use xlink:href="#m2112e36bcc" x="55.772054" y="60.063722" style="stroke: #000000; stroke-width: 0.6"/>
      </g>
     </g>
    </g>
    <g id="ytick_13">
     <g id="line2d_17">
      <g>
       <use xlink:href="#m2112e36bcc" x="55.772054" y="52.555428" style="stroke: #000000; stroke-width: 0.6"/>
      </g>
     </g>
    </g>
    <g id="ytick_14">
     <g id="line2d_18">
      <g>
       <use xlink:href="#m2112e36bcc" x="55.772054" y="47.228209" style="stroke: #000000; stroke-width: 0.6"/>
      </g>
     </g>
    </g>
    <g id="ytick_15">
     <g id="line2d_19">
      <g>
       <use xlink:href="#m2112e36bcc" x="55.772054" y="43.096097" style="stroke: #000000; stroke-width: 0.6"/>
      </g>
     </g>
    </g>
    <g id="ytick_16">
     <g id="line2d_20">
      <g>
       <use xlink:href="#m2112e36bcc" x="55.772054" y="39.719915" style="stroke: #000000; stroke-width: 0.6"/>
      </g>
     </g>
    </g>
    <g id="ytick_17">
     <g id="line2d_21">
      <g>
       <use xlink:href="#m2112e36bcc" x="55.772054" y="36.865394" style="stroke: #000000; stroke-width: 0.6"/>
      </g>
     </g>
    </g>
    <g id="ytick_18">
     <g id="line2d_22">
      <g>
       <use xlink:href="#m2112e36bcc" x="55.772054" y="34.392696" style="stroke: #000000; stroke-width: 0.6"/>
      </g>
     </g>
    </g>
    <g id="ytick_19">
     <g id="line2d_23">
      <g>
       <use xlink:href="#m2112e36bcc" x="55.772054" y="32.211621" style="stroke: #000000; stroke-width: 0.6"/>
      </g>
     </g>
    </g>
    <g id="text_9">
     <!-- Time [s] -->
     <g transform="translate(19.192366 87.488906) rotate(-90) scale(0.1 -0.1)">
      <defs>
       <path id="DejaVuSans-54" d="M -19 4666 
L 3928 4666 
L 3928 4134 
L 2272 4134 
L 2272 0 
L 1638 0 
L 1638 4134 
L -19 4134 
L -19 4666 
z
" transform="scale(0.015625)"/>
       <path id="DejaVuSans-69" d="M 603 3500 
L 1178 3500 
L 1178 0 
L 603 0 
L 603 3500 
z
M 603 4863 
L 1178 4863 
L 1178 4134 
L 603 4134 
L 603 4863 
z
" transform="scale(0.015625)"/>
       <path id="DejaVuSans-6d" d="M 3328 2828 
Q 3544 3216 3844 3400 
Q 4144 3584 4550 3584 
Q 5097 3584 5394 3201 
Q 5691 2819 5691 2113 
L 5691 0 
L 5113 0 
L 5113 2094 
Q 5113 2597 4934 2840 
Q 4756 3084 4391 3084 
Q 3944 3084 3684 2787 
Q 3425 2491 3425 1978 
L 3425 0 
L 2847 0 
L 2847 2094 
Q 2847 2600 2669 2842 
Q 2491 3084 2119 3084 
Q 1678 3084 1418 2786 
Q 1159 2488 1159 1978 
L 1159 0 
L 581 0 
L 581 3500 
L 1159 3500 
L 1159 2956 
Q 1356 3278 1631 3431 
Q 1906 3584 2284 3584 
Q 2666 3584 2933 3390 
Q 3200 3197 3328 2828 
z
" transform="scale(0.015625)"/>
       <path id="DejaVuSans-65" d="M 3597 1894 
L 3597 1613 
L 953 1613 
Q 991 1019 1311 708 
Q 1631 397 2203 397 
Q 2534 397 2845 478 
Q 3156 559 3463 722 
L 3463 178 
Q 3153 47 2828 -22 
Q 2503 -91 2169 -91 
Q 1331 -91 842 396 
Q 353 884 353 1716 
Q 353 2575 817 3079 
Q 1281 3584 2069 3584 
Q 2775 3584 3186 3129 
Q 3597 2675 3597 1894 
z
M 3022 2063 
Q 3016 2534 2758 2815 
Q 2500 3097 2075 3097 
Q 1594 3097 1305 2825 
Q 1016 2553 972 2059 
L 3022 2063 
z
" transform="scale(0.015625)"/>
       <path id="DejaVuSans-20" transform="scale(0.015625)"/>
       <path id="DejaVuSans-5b" d="M 550 4863 
L 1875 4863 
L 1875 4416 
L 1125 4416 
L 1125 -397 
L 1875 -397 
L 1875 -844 
L 550 -844 
L 550 4863 
z
" transform="scale(0.015625)"/>
       <path id="DejaVuSans-73" d="M 2834 3397 
L 2834 2853 
Q 2591 2978 2328 3040 
Q 2066 3103 1784 3103 
Q 1356 3103 1142 2972 
Q 928 2841 928 2578 
Q 928 2378 1081 2264 
Q 1234 2150 1697 2047 
L 1894 2003 
Q 2506 1872 2764 1633 
Q 3022 1394 3022 966 
Q 3022 478 2636 193 
Q 2250 -91 1575 -91 
Q 1294 -91 989 -36 
Q 684 19 347 128 
L 347 722 
Q 666 556 975 473 
Q 1284 391 1588 391 
Q 1994 391 2212 530 
Q 2431 669 2431 922 
Q 2431 1156 2273 1281 
Q 2116 1406 1581 1522 
L 1381 1569 
Q 847 1681 609 1914 
Q 372 2147 372 2553 
Q 372 3047 722 3315 
Q 1072 3584 1716 3584 
Q 2034 3584 2315 3537 
Q 2597 3491 2834 3397 
z
" transform="scale(0.015625)"/>
       <path id="DejaVuSans-5d" d="M 1947 4863 
L 1947 -844 
L 622 -844 
L 622 -397 
L 1369 -397 
L 1369 4416 
L 622 4416 
L 622 4863 
L 1947 4863 
z
" transform="scale(0.015625)"/>
      </defs>
      <use xlink:href="#DejaVuSans-54"/>
      <use xlink:href="#DejaVuSans-69" x="57.958984"/>
      <use xlink:href="#DejaVuSans-6d" x="85.742188"/>
      <use xlink:href="#DejaVuSans-65" x="183.154297"/>
      <use xlink:href="#DejaVuSans-20" x="244.677734"/>
      <use xlink:href="#DejaVuSans-5b" x="276.464844"/>
      <use xlink:href="#DejaVuSans-73" x="315.478516"/>
      <use xlink:href="#DejaVuSans-5d" x="367.578125"/>
     </g>
    </g>
   </g>
   <g id="line2d_24">
    <path d="M 55.772054 107.439919 
L 57.91418 107.42313 
L 60.056306 107.411509 
L 62.198432 107.403931 
L 64.340558 107.412783 
L 66.482683 107.316518 
L 68.624809 107.301246 
L 70.766935 107.298717 
L 72.909061 107.372906 
L 75.051187 107.261372 
L 77.193313 106.727517 
L 79.335439 106.119787 
L 81.477565 102.168164 
L 83.619691 101.510951 
L 85.761817 101.615196 
L 87.903942 105.101227 
L 90.046068 102.01797 
L 92.188194 102.176547 
L 94.33032 97.436631 
L 96.472446 86.361323 
L 98.614572 53.440072 
L 100.756698 37.858093 
L 102.898824 34.322157 
L 105.04095 35.053399 
L 107.183076 35.053399 
L 109.325201 30.871912 
L 111.467327 26.884402 
" clip-path="url(#pe53fb237c4)" style="fill: none; stroke: #1f77b4; stroke-width: 1.5; stroke-linecap: square"/>
   </g>
   <g id="line2d_25">
    <path d="M 55.772054 107.439889 
L 57.91418 107.439841 
L 60.056306 107.439835 
L 62.198432 107.439848 
L 64.340558 107.439848 
L 66.482683 107.439854 
L 68.624809 107.439851 
L 70.766935 107.439846 
L 72.909061 107.439817 
L 75.051187 107.432094 
L 77.193313 107.432102 
L 79.335439 107.432133 
L 81.477565 107.439862 
L 83.619691 107.43328 
L 85.761817 107.433282 
L 87.903942 107.433285 
L 90.046068 107.439871 
L 92.188194 107.439874 
L 94.33032 107.439878 
L 96.472446 107.439879 
L 98.614572 107.407755 
L 100.756698 107.407746 
L 102.898824 107.407733 
L 105.04095 107.439848 
L 107.183076 107.394869 
L 109.325201 107.394873 
L 111.467327 107.394874 
L 113.609453 107.357557 
L 115.751579 107.357554 
L 117.893705 107.35755 
L 120.035831 107.409277 
L 122.177957 107.409276 
L 124.320083 107.409276 
L 126.462209 107.416501 
L 128.604335 107.333166 
L 130.74646 106.907785 
L 132.888586 106.741947 
L 135.030712 106.56163 
L 137.172838 106.821549 
L 139.314964 106.71622 
L 141.45709 106.785123 
L 143.599216 106.621565 
L 145.741342 106.310855 
L 147.883468 106.180818 
L 150.025594 106.234532 
L 152.167719 106.432833 
L 154.309845 106.02221 
L 156.451971 105.369308 
L 158.594097 105.306355 
L 160.736223 105.463646 
L 162.878349 105.708733 
L 165.020475 105.560938 
L 167.162601 105.422799 
L 169.304727 105.338821 
L 171.446853 105.165515 
L 173.588978 105.010245 
L 175.731104 104.845125 
L 177.87323 104.630072 
L 180.015356 103.606832 
L 182.157482 102.970444 
L 184.299608 101.704299 
L 186.441734 102.469003 
L 188.58386 102.268227 
L 190.725986 102.159604 
L 192.868112 98.127445 
L 195.010237 96.173969 
L 197.152363 96.066455 
L 199.294489 99.621939 
L 201.436615 100.411011 
L 203.578741 100.618534 
L 205.720867 100.23764 
L 207.862993 100.607264 
L 210.005119 100.586935 
L 212.147245 99.539005 
L 214.289371 98.245477 
L 216.431496 97.954433 
L 218.573622 97.624516 
L 220.715748 97.5381 
L 222.857874 96.527159 
L 225 96.630545 
" clip-path="url(#pe53fb237c4)" style="fill: none; stroke: #ff7f0e; stroke-width: 1.5; stroke-linecap: square"/>
   </g>
   <g id="line2d_26">
    <path d="M 55.772054 107.439886 
L 57.91418 107.439829 
L 60.056306 107.439833 
L 62.198432 107.43984 
L 64.340558 107.43985 
L 66.482683 107.437649 
L 68.624809 107.43765 
L 70.766935 107.437634 
L 72.909061 107.439831 
L 75.051187 107.439827 
L 77.193313 107.439837 
L 79.335439 107.439844 
L 81.477565 107.439856 
L 83.619691 107.425692 
L 85.761817 107.425698 
L 87.903942 107.425704 
L 90.046068 107.439882 
L 92.188194 107.439874 
L 94.33032 107.439878 
L 96.472446 107.439874 
L 98.614572 107.439833 
L 100.756698 107.439821 
L 102.898824 107.439808 
L 105.04095 107.439833 
L 107.183076 107.439817 
L 109.325201 107.252891 
L 111.467327 107.180069 
L 113.609453 107.144149 
L 115.751579 107.198281 
L 117.893705 107.143056 
L 120.035831 107.005425 
L 122.177957 106.949899 
L 124.320083 106.944401 
L 126.462209 106.705018 
L 128.604335 106.520936 
L 130.74646 106.194197 
L 132.888586 106.189091 
L 135.030712 105.903482 
L 137.172838 105.78117 
L 139.314964 105.526394 
L 141.45709 105.716256 
L 143.599216 105.266398 
L 145.741342 104.985259 
L 147.883468 104.566697 
L 150.025594 104.312205 
L 152.167719 103.937478 
L 154.309845 102.747473 
L 156.451971 102.721248 
L 158.594097 102.230066 
L 160.736223 102.650005 
L 162.878349 102.534625 
L 165.020475 102.456238 
L 167.162601 102.037399 
L 169.304727 101.881464 
L 171.446853 101.630084 
L 173.588978 101.856467 
L 175.731104 100.915679 
L 177.87323 100.712993 
L 180.015356 98.507106 
L 182.157482 96.290628 
L 184.299608 94.088569 
L 186.441734 95.401785 
L 188.58386 96.137438 
L 190.725986 95.76716 
L 192.868112 87.548043 
L 195.010237 73.152179 
L 197.152363 73.220068 
L 199.294489 79.7532 
L 201.436615 91.522948 
L 203.578741 90.786899 
L 205.720867 89.461589 
L 207.862993 89.885003 
L 210.005119 89.485941 
L 212.147245 89.616283 
L 214.289371 87.421168 
L 216.431496 86.561986 
L 218.573622 84.033593 
L 220.715748 84.00096 
L 222.857874 79.032303 
L 225 71.980668 
" clip-path="url(#pe53fb237c4)" style="fill: none; stroke: #2ca02c; stroke-width: 1.5; stroke-linecap: square"/>
   </g>
   <g id="line2d_27">
    <path d="M 55.772054 107.439888 
L 57.91418 107.439818 
L 60.056306 107.439826 
L 62.198432 107.439834 
L 64.340558 107.439859 
L 66.482683 107.439856 
L 68.624809 107.439852 
L 70.766935 107.439849 
L 72.909061 107.43983 
L 75.051187 107.439827 
L 77.193313 107.439824 
L 79.335439 107.439848 
L 81.477565 107.43986 
L 83.619691 107.439874 
L 85.761817 107.439885 
L 87.903942 107.439887 
L 90.046068 107.439886 
L 92.188194 107.439874 
L 94.33032 107.439871 
L 96.472446 107.439867 
L 98.614572 107.078403 
L 100.756698 106.940865 
L 102.898824 106.839352 
L 105.04095 107.088203 
L 107.183076 107.170057 
L 109.325201 106.970491 
L 111.467327 107.0831 
L 113.609453 106.805895 
L 115.751579 106.761491 
L 117.893705 106.515387 
L 120.035831 106.23736 
L 122.177957 106.241659 
L 124.320083 106.091503 
L 126.462209 106.078459 
L 128.604335 105.530856 
L 130.74646 105.225081 
L 132.888586 104.787591 
L 135.030712 104.411087 
L 137.172838 103.816747 
L 139.314964 103.533932 
L 141.45709 103.657592 
L 143.599216 103.196163 
L 145.741342 102.787919 
L 147.883468 101.793592 
L 150.025594 100.529085 
L 152.167719 100.367808 
L 154.309845 98.274145 
L 156.451971 98.68389 
L 158.594097 98.012049 
L 160.736223 99.535338 
L 162.878349 99.814887 
L 165.020475 99.39125 
L 167.162601 98.580884 
L 169.304727 97.840055 
L 171.446853 97.097874 
L 173.588978 97.014031 
L 175.731104 94.046242 
L 177.87323 88.939936 
L 180.015356 86.000252 
L 182.157482 82.663897 
L 184.299608 84.474151 
L 186.441734 85.922696 
L 188.58386 88.168155 
L 190.725986 84.866602 
L 192.868112 75.497152 
L 195.010237 60.452403 
L 197.152363 61.52625 
L 199.294489 68.429514 
L 201.436615 79.672325 
L 203.578741 79.275372 
L 205.720867 76.934636 
L 207.862993 78.240919 
L 210.005119 77.3768 
L 212.147245 77.264085 
L 214.289371 71.862071 
L 216.431496 70.276139 
L 218.573622 66.858791 
L 220.715748 67.388282 
L 222.857874 61.47069 
L 225 57.599501 
" clip-path="url(#pe53fb237c4)" style="fill: none; stroke: #d62728; stroke-width: 1.5; stroke-linecap: square"/>
   </g>
   <g id="line2d_28">
    <path d="M 55.772054 107.439934 
L 57.91418 107.439886 
L 60.056306 107.439893 
L 62.198432 107.439897 
L 64.340558 107.439916 
L 66.482683 107.439919 
L 68.624809 107.439919 
L 70.766935 107.43992 
L 72.909061 107.439917 
L 75.051187 107.439915 
L 77.193313 107.439897 
L 79.335439 107.439888 
L 81.477565 107.389831 
L 83.619691 107.243153 
L 85.761817 107.243158 
L 87.903942 107.293209 
L 90.046068 107.28154 
L 92.188194 107.181051 
L 94.33032 107.015262 
L 96.472446 107.064823 
L 98.614572 106.837909 
L 100.756698 106.581319 
L 102.898824 106.268463 
L 105.04095 106.161501 
L 107.183076 106.116121 
L 109.325201 105.948927 
L 111.467327 105.634342 
L 113.609453 105.325961 
L 115.751579 104.809472 
L 117.893705 104.525399 
L 120.035831 104.092606 
L 122.177957 104.220322 
L 124.320083 103.936487 
L 126.462209 104.110724 
L 128.604335 103.846674 
L 130.74646 104.004585 
L 132.888586 103.793509 
L 135.030712 103.337206 
L 137.172838 102.927594 
L 139.314964 102.689577 
L 141.45709 102.658127 
L 143.599216 102.170864 
L 145.741342 101.750624 
L 147.883468 101.087611 
L 150.025594 101.077538 
L 152.167719 100.416629 
L 154.309845 100.089956 
L 156.451971 99.09173 
L 158.594097 99.13411 
L 160.736223 99.218511 
L 162.878349 99.30846 
L 165.020475 98.595559 
L 167.162601 97.875969 
L 169.304727 97.701121 
L 171.446853 97.763094 
L 173.588978 97.898578 
L 175.731104 97.726021 
L 177.87323 95.83287 
L 180.015356 95.434849 
L 182.157482 94.413486 
L 184.299608 95.54864 
L 186.441734 94.832215 
L 188.58386 94.422994 
L 190.725986 93.830785 
L 192.868112 93.206966 
L 195.010237 92.608706 
L 197.152363 91.390601 
L 199.294489 90.270867 
L 201.436615 89.957023 
L 203.578741 88.918802 
L 205.720867 86.035997 
L 207.862993 83.669444 
L 210.005119 83.502684 
L 212.147245 85.020027 
L 214.289371 85.796514 
L 216.431496 83.580183 
L 218.573622 80.86463 
L 220.715748 79.581288 
L 222.857874 79.648858 
L 225 80.153277 
" clip-path="url(#pe53fb237c4)" style="fill: none; stroke: #9467bd; stroke-width: 1.5; stroke-linecap: square"/>
   </g>
   <g id="line2d_29">
    <path d="M 55.772054 107.439931 
L 57.91418 107.439899 
L 60.056306 107.439912 
L 62.198432 107.439917 
L 64.340558 107.439923 
L 66.482683 107.439923 
L 68.624809 107.439912 
L 70.766935 107.439912 
L 72.909061 107.439912 
L 75.051187 107.439919 
L 77.193313 107.439912 
L 79.335439 107.439905 
L 81.477565 107.439903 
L 83.619691 107.439907 
L 85.761817 107.439914 
L 87.903942 107.439901 
L 90.046068 107.439904 
L 92.188194 107.4399 
L 94.33032 107.439907 
L 96.472446 107.439903 
L 98.614572 107.439905 
L 100.756698 107.439904 
L 102.898824 107.439862 
L 105.04095 107.439846 
L 107.183076 107.439835 
L 109.325201 107.439879 
L 111.467327 107.439883 
L 113.609453 107.439897 
L 115.751579 107.439901 
L 117.893705 107.439831 
L 120.035831 107.439829 
L 122.177957 107.439823 
L 124.320083 107.439902 
L 126.462209 107.439911 
L 128.604335 107.439914 
L 130.74646 107.439915 
L 132.888586 107.439919 
L 135.030712 107.439919 
L 137.172838 107.43992 
L 139.314964 107.439918 
L 141.45709 107.439918 
L 143.599216 107.439908 
L 145.741342 107.439908 
L 147.883468 107.43989 
L 150.025594 107.439898 
L 152.167719 107.439878 
L 154.309845 107.439887 
L 156.451971 107.439882 
L 158.594097 107.439903 
L 160.736223 107.439911 
L 162.878349 107.439915 
L 165.020475 107.439913 
L 167.162601 107.439912 
L 169.304727 107.439915 
L 171.446853 107.439916 
L 173.588978 107.439914 
L 175.731104 107.439913 
L 177.87323 107.439913 
L 180.015356 107.439912 
L 182.157482 107.439908 
L 184.299608 107.439905 
L 186.441734 107.439891 
L 188.58386 107.439891 
L 190.725986 107.439876 
L 192.868112 107.439893 
L 195.010237 107.439889 
L 197.152363 107.439902 
L 199.294489 107.439898 
L 201.436615 107.4399 
L 203.578741 107.439878 
L 205.720867 107.439874 
L 207.862993 107.439869 
L 210.005119 107.439894 
L 212.147245 107.439897 
L 214.289371 107.439896 
L 216.431496 107.39078 
L 218.573622 107.390749 
L 220.715748 107.39075 
L 222.857874 107.439865 
L 225 107.439908 
" clip-path="url(#pe53fb237c4)" style="fill: none; stroke: #8c564b; stroke-width: 1.5; stroke-linecap: square"/>
   </g>
   <g id="line2d_30">
    <path d="M 55.772054 107.43989 
L 57.91418 103.065852 
L 60.056306 102.66823 
L 62.198432 102.30085 
L 64.340558 106.332219 
L 66.482683 106.350153 
L 68.624809 106.385785 
L 70.766935 106.39725 
L 72.909061 106.421152 
L 75.051187 106.348499 
L 77.193313 106.312963 
L 79.335439 106.00104 
L 81.477565 106.041058 
L 83.619691 105.969666 
L 85.761817 106.191697 
L 87.903942 106.167007 
L 90.046068 106.165847 
L 92.188194 106.251858 
L 94.33032 106.203425 
L 96.472446 106.21933 
L 98.614572 106.182452 
L 100.756698 106.230815 
L 102.898824 106.277622 
L 105.04095 106.306714 
L 107.183076 106.315888 
L 109.325201 106.309773 
L 111.467327 106.277833 
L 113.609453 106.291489 
L 115.751579 106.179548 
L 117.893705 106.195797 
L 120.035831 106.125361 
L 122.177957 106.260332 
L 124.320083 106.240426 
L 126.462209 106.2612 
L 128.604335 106.272839 
L 130.74646 106.31682 
L 132.888586 106.352199 
L 135.030712 106.312749 
L 137.172838 106.322351 
L 139.314964 106.254493 
L 141.45709 106.265979 
L 143.599216 106.267617 
L 145.741342 106.375425 
L 147.883468 106.366865 
L 150.025594 106.333338 
L 152.167719 106.334678 
L 154.309845 106.371135 
L 156.451971 106.353028 
L 158.594097 106.328882 
L 160.736223 106.331281 
L 162.878349 106.404555 
L 165.020475 106.389964 
L 167.162601 106.302934 
L 169.304727 106.206964 
L 171.446853 106.163375 
L 173.588978 106.136357 
L 175.731104 106.180219 
L 177.87323 106.263011 
L 180.015356 106.381943 
L 182.157482 106.343423 
L 184.299608 106.300533 
L 186.441734 106.235796 
L 188.58386 106.299086 
L 190.725986 106.350087 
L 192.868112 106.408186 
L 195.010237 106.407136 
L 197.152363 106.355221 
L 199.294489 106.331142 
L 201.436615 106.321318 
L 203.578741 106.308166 
L 205.720867 106.183475 
L 207.862993 106.139761 
L 210.005119 106.145266 
L 212.147245 106.267879 
L 214.289371 106.275449 
L 216.431496 106.319099 
L 218.573622 106.373777 
L 220.715748 106.38267 
L 222.857874 106.383093 
L 225 106.401192 
" clip-path="url(#pe53fb237c4)" style="fill: none; stroke: #e377c2; stroke-width: 1.5; stroke-linecap: square"/>
   </g>
   <g id="patch_3">
    <path d="M 55.772054 107.44 
L 55.772054 26.88 
" style="fill: none; stroke: #000000; stroke-width: 0.8; stroke-linejoin: miter; stroke-linecap: square"/>
   </g>
   <g id="patch_4">
    <path d="M 225 107.44 
L 225 26.88 
" style="fill: none; stroke: #000000; stroke-width: 0.8; stroke-linejoin: miter; stroke-linecap: square"/>
   </g>
   <g id="patch_5">
    <path d="M 55.772054 107.44 
L 225 107.44 
" style="fill: none; stroke: #000000; stroke-width: 0.8; stroke-linejoin: miter; stroke-linecap: square"/>
   </g>
   <g id="patch_6">
    <path d="M 55.772054 26.88 
L 225 26.88 
" style="fill: none; stroke: #000000; stroke-width: 0.8; stroke-linejoin: miter; stroke-linecap: square"/>
   </g>
   <g id="text_10">
    <!-- 10% -->
    <g transform="translate(127.050089 20.88) scale(0.12 -0.12)">
     <defs>
      <path id="DejaVuSans-25" d="M 4653 2053 
Q 4381 2053 4226 1822 
Q 4072 1591 4072 1178 
Q 4072 772 4226 539 
Q 4381 306 4653 306 
Q 4919 306 5073 539 
Q 5228 772 5228 1178 
Q 5228 1588 5073 1820 
Q 4919 2053 4653 2053 
z
M 4653 2450 
Q 5147 2450 5437 2106 
Q 5728 1763 5728 1178 
Q 5728 594 5436 251 
Q 5144 -91 4653 -91 
Q 4153 -91 3862 251 
Q 3572 594 3572 1178 
Q 3572 1766 3864 2108 
Q 4156 2450 4653 2450 
z
M 1428 4353 
Q 1159 4353 1004 4120 
Q 850 3888 850 3481 
Q 850 3069 1003 2837 
Q 1156 2606 1428 2606 
Q 1700 2606 1854 2837 
Q 2009 3069 2009 3481 
Q 2009 3884 1853 4118 
Q 1697 4353 1428 4353 
z
M 4250 4750 
L 4750 4750 
L 1831 -91 
L 1331 -91 
L 4250 4750 
z
M 1428 4750 
Q 1922 4750 2215 4408 
Q 2509 4066 2509 3481 
Q 2509 2891 2217 2550 
Q 1925 2209 1428 2209 
Q 931 2209 642 2551 
Q 353 2894 353 3481 
Q 353 4063 643 4406 
Q 934 4750 1428 4750 
z
" transform="scale(0.015625)"/>
     </defs>
     <use xlink:href="#DejaVuSans-31"/>
     <use xlink:href="#DejaVuSans-30" x="63.623047"/>
     <use xlink:href="#DejaVuSans-25" x="127.246094"/>
    </g>
   </g>
  </g>
  <g id="axes_2">
   <g id="patch_7">
    <path d="M 280.772054 107.44 
L 450 107.44 
L 450 26.88 
L 280.772054 26.88 
z
" style="fill: #ffffff"/>
   </g>
   <g id="matplotlib.axis_3">
    <g id="xtick_5">
     <g id="line2d_31">
      <g>
       <use xlink:href="#m12db4833c5" x="280.772054" y="107.44" style="stroke: #000000; stroke-width: 0.8"/>
      </g>
     </g>
     <g id="text_11">
      <!-- 0 -->
      <g transform="translate(277.590804 122.038438) scale(0.1 -0.1)">
       <use xlink:href="#DejaVuSans-30"/>
      </g>
     </g>
    </g>
    <g id="xtick_6">
     <g id="line2d_32">
      <g>
       <use xlink:href="#m12db4833c5" x="323.614572" y="107.44" style="stroke: #000000; stroke-width: 0.8"/>
      </g>
     </g>
     <g id="text_12">
      <!-- 20 -->
      <g transform="translate(317.252072 122.038438) scale(0.1 -0.1)">
       <use xlink:href="#DejaVuSans-32"/>
       <use xlink:href="#DejaVuSans-30" x="63.623047"/>
      </g>
     </g>
    </g>
    <g id="xtick_7">
     <g id="line2d_33">
      <g>
       <use xlink:href="#m12db4833c5" x="366.45709" y="107.44" style="stroke: #000000; stroke-width: 0.8"/>
      </g>
     </g>
     <g id="text_13">
      <!-- 40 -->
      <g transform="translate(360.09459 122.038438) scale(0.1 -0.1)">
       <use xlink:href="#DejaVuSans-34"/>
       <use xlink:href="#DejaVuSans-30" x="63.623047"/>
      </g>
     </g>
    </g>
    <g id="xtick_8">
     <g id="line2d_34">
      <g>
       <use xlink:href="#m12db4833c5" x="409.299608" y="107.44" style="stroke: #000000; stroke-width: 0.8"/>
      </g>
     </g>
     <g id="text_14">
      <!-- 60 -->
      <g transform="translate(402.937108 122.038438) scale(0.1 -0.1)">
       <use xlink:href="#DejaVuSans-36"/>
       <use xlink:href="#DejaVuSans-30" x="63.623047"/>
      </g>
     </g>
    </g>
    <g id="text_15">
     <!-- n -->
     <g transform="translate(362.217277 135.716563) scale(0.1 -0.1)">
      <use xlink:href="#DejaVuSans-6e"/>
     </g>
    </g>
   </g>
   <g id="matplotlib.axis_4">
    <g id="ytick_20">
     <g id="line2d_35">
      <g>
       <use xlink:href="#me982ec64fe" x="280.772054" y="105.071186" style="stroke: #000000; stroke-width: 0.8"/>
      </g>
     </g>
     <g id="text_16">
      <!-- $\mathdefault{10^{-1}}$ -->
      <g transform="translate(250.272054 108.870405) scale(0.1 -0.1)">
       <use xlink:href="#DejaVuSans-31" transform="translate(0 0.684375)"/>
       <use xlink:href="#DejaVuSans-30" transform="translate(63.623047 0.684375)"/>
       <use xlink:href="#DejaVuSans-2212" transform="translate(128.203125 38.965625) scale(0.7)"/>
       <use xlink:href="#DejaVuSans-31" transform="translate(186.855469 38.965625) scale(0.7)"/>
      </g>
     </g>
    </g>
    <g id="ytick_21">
     <g id="line2d_36">
      <g>
       <use xlink:href="#me982ec64fe" x="280.772054" y="83.751861" style="stroke: #000000; stroke-width: 0.8"/>
      </g>
     </g>
     <g id="text_17">
      <!-- $\mathdefault{10^{0}}$ -->
      <g transform="translate(256.172054 87.55108) scale(0.1 -0.1)">
       <use xlink:href="#DejaVuSans-31" transform="translate(0 0.765625)"/>
       <use xlink:href="#DejaVuSans-30" transform="translate(63.623047 0.765625)"/>
       <use xlink:href="#DejaVuSans-30" transform="translate(128.203125 39.046875) scale(0.7)"/>
      </g>
     </g>
    </g>
    <g id="ytick_22">
     <g id="line2d_37">
      <g>
       <use xlink:href="#me982ec64fe" x="280.772054" y="30.260584" style="stroke: #000000; stroke-width: 0.8"/>
      </g>
     </g>
     <g id="text_18">
      <!-- $\mathdefault{10^{1}}$ -->
      <g transform="translate(256.172054 34.059802) scale(0.1 -0.1)">
       <use xlink:href="#DejaVuSans-31" transform="translate(0 0.684375)"/>
       <use xlink:href="#DejaVuSans-30" transform="translate(63.623047 0.684375)"/>
       <use xlink:href="#DejaVuSans-31" transform="translate(128.203125 38.965625) scale(0.7)"/>
      </g>
     </g>
    </g>
    <g id="ytick_23">
     <g id="line2d_38">
      <g>
       <use xlink:href="#m2112e36bcc" x="280.772054" y="102.702372" style="stroke: #000000; stroke-width: 0.6"/>
      </g>
     </g>
    </g>
    <g id="ytick_24">
     <g id="line2d_39">
      <g>
       <use xlink:href="#m2112e36bcc" x="280.772054" y="100.333558" style="stroke: #000000; stroke-width: 0.6"/>
      </g>
     </g>
    </g>
    <g id="ytick_25">
     <g id="line2d_40">
      <g>
       <use xlink:href="#m2112e36bcc" x="280.772054" y="97.964744" style="stroke: #000000; stroke-width: 0.6"/>
      </g>
     </g>
    </g>
    <g id="ytick_26">
     <g id="line2d_41">
      <g>
       <use xlink:href="#m2112e36bcc" x="280.772054" y="95.59593" style="stroke: #000000; stroke-width: 0.6"/>
      </g>
     </g>
    </g>
    <g id="ytick_27">
     <g id="line2d_42">
      <g>
       <use xlink:href="#m2112e36bcc" x="280.772054" y="93.227116" style="stroke: #000000; stroke-width: 0.6"/>
      </g>
     </g>
    </g>
    <g id="ytick_28">
     <g id="line2d_43">
      <g>
       <use xlink:href="#m2112e36bcc" x="280.772054" y="90.858303" style="stroke: #000000; stroke-width: 0.6"/>
      </g>
     </g>
    </g>
    <g id="ytick_29">
     <g id="line2d_44">
      <g>
       <use xlink:href="#m2112e36bcc" x="280.772054" y="88.489489" style="stroke: #000000; stroke-width: 0.6"/>
      </g>
     </g>
    </g>
    <g id="ytick_30">
     <g id="line2d_45">
      <g>
       <use xlink:href="#m2112e36bcc" x="280.772054" y="86.120675" style="stroke: #000000; stroke-width: 0.6"/>
      </g>
     </g>
    </g>
    <g id="ytick_31">
     <g id="line2d_46">
      <g>
       <use xlink:href="#m2112e36bcc" x="280.772054" y="60.063722" style="stroke: #000000; stroke-width: 0.6"/>
      </g>
     </g>
    </g>
    <g id="ytick_32">
     <g id="line2d_47">
      <g>
       <use xlink:href="#m2112e36bcc" x="280.772054" y="52.555428" style="stroke: #000000; stroke-width: 0.6"/>
      </g>
     </g>
    </g>
    <g id="ytick_33">
     <g id="line2d_48">
      <g>
       <use xlink:href="#m2112e36bcc" x="280.772054" y="47.228209" style="stroke: #000000; stroke-width: 0.6"/>
      </g>
     </g>
    </g>
    <g id="ytick_34">
     <g id="line2d_49">
      <g>
       <use xlink:href="#m2112e36bcc" x="280.772054" y="43.096097" style="stroke: #000000; stroke-width: 0.6"/>
      </g>
     </g>
    </g>
    <g id="ytick_35">
     <g id="line2d_50">
      <g>
       <use xlink:href="#m2112e36bcc" x="280.772054" y="39.719915" style="stroke: #000000; stroke-width: 0.6"/>
      </g>
     </g>
    </g>
    <g id="ytick_36">
     <g id="line2d_51">
      <g>
       <use xlink:href="#m2112e36bcc" x="280.772054" y="36.865394" style="stroke: #000000; stroke-width: 0.6"/>
      </g>
     </g>
    </g>
    <g id="ytick_37">
     <g id="line2d_52">
      <g>
       <use xlink:href="#m2112e36bcc" x="280.772054" y="34.392696" style="stroke: #000000; stroke-width: 0.6"/>
      </g>
     </g>
    </g>
    <g id="ytick_38">
     <g id="line2d_53">
      <g>
       <use xlink:href="#m2112e36bcc" x="280.772054" y="32.211621" style="stroke: #000000; stroke-width: 0.6"/>
      </g>
     </g>
    </g>
    <g id="text_19">
     <!-- Time [s] -->
     <g transform="translate(244.192366 87.488906) rotate(-90) scale(0.1 -0.1)">
      <use xlink:href="#DejaVuSans-54"/>
      <use xlink:href="#DejaVuSans-69" x="57.958984"/>
      <use xlink:href="#DejaVuSans-6d" x="85.742188"/>
      <use xlink:href="#DejaVuSans-65" x="183.154297"/>
      <use xlink:href="#DejaVuSans-20" x="244.677734"/>
      <use xlink:href="#DejaVuSans-5b" x="276.464844"/>
      <use xlink:href="#DejaVuSans-73" x="315.478516"/>
      <use xlink:href="#DejaVuSans-5d" x="367.578125"/>
     </g>
    </g>
   </g>
   <g id="line2d_54">
    <path d="M 280.772054 107.439878 
L 282.91418 107.426633 
L 285.056306 107.40987 
L 287.198432 107.366659 
L 289.340558 107.255244 
L 291.482683 107.028204 
L 293.624809 106.642525 
L 295.766935 106.059779 
L 297.909061 95.719819 
L 300.051187 78.971136 
L 302.193313 49.449254 
L 304.335439 36.599884 
L 306.477565 29.577207 
L 308.619691 26.884402 
L 310.761817 26.884402 
" clip-path="url(#pbb4b21497f)" style="fill: none; stroke: #1f77b4; stroke-width: 1.5; stroke-linecap: square"/>
   </g>
   <g id="line2d_55">
    <path d="M 280.772054 107.439914 
L 282.91418 107.439871 
L 285.056306 107.439869 
L 287.198432 107.439866 
L 289.340558 107.439863 
L 291.482683 107.439867 
L 293.624809 107.439873 
L 295.766935 107.439874 
L 297.909061 107.439864 
L 300.051187 107.439854 
L 302.193313 107.439848 
L 304.335439 107.439848 
L 306.477565 107.372335 
L 308.619691 107.372337 
L 310.761817 107.192073 
L 312.903942 107.130637 
L 315.046068 106.848513 
L 317.188194 106.670448 
L 319.33032 106.497686 
L 321.472446 106.486762 
L 323.614572 106.421738 
L 325.756698 106.275286 
L 327.898824 106.091073 
L 330.04095 105.928084 
L 332.183076 105.675404 
L 334.325201 104.599361 
L 336.467327 104.077338 
L 338.609453 102.96665 
L 340.751579 102.724054 
L 342.893705 101.804353 
L 345.035831 101.04595 
L 347.177957 100.012627 
L 349.320083 99.166866 
L 351.462209 98.251285 
L 353.604335 97.21112 
L 355.74646 95.314243 
L 357.888586 92.961205 
L 360.030712 91.279584 
L 362.172838 88.970904 
L 364.314964 86.324452 
L 366.45709 85.367349 
L 368.599216 85.099243 
L 370.741342 84.481361 
L 372.883468 81.052434 
L 375.025594 78.527008 
L 377.167719 74.613093 
L 379.309845 68.520642 
L 381.451971 61.855515 
L 383.594097 59.242532 
L 385.736223 57.828153 
L 387.878349 56.408889 
L 390.020475 54.94241 
L 392.162601 55.465051 
L 394.304727 55.20294 
L 396.446853 54.519135 
L 398.588978 52.639818 
L 400.731104 49.994555 
L 402.87323 47.118984 
L 405.015356 41.101715 
L 407.157482 37.869085 
L 409.299608 37.142175 
L 411.441734 37.284699 
L 413.58386 37.88581 
L 415.725986 38.294239 
L 417.868112 40.121598 
L 420.010237 40.664566 
L 422.152363 39.235938 
L 424.294489 38.786709 
L 426.436615 37.840721 
L 428.578741 37.112035 
L 430.720867 33.278794 
L 432.862993 30.042733 
L 435.005119 28.925784 
L 437.147245 29.750153 
L 439.289371 30.488067 
L 441.431496 28.816816 
L 443.573622 27.680969 
L 445.715748 27.710092 
L 447.857874 28.333373 
L 450 28.732135 
" clip-path="url(#pbb4b21497f)" style="fill: none; stroke: #ff7f0e; stroke-width: 1.5; stroke-linecap: square"/>
   </g>
   <g id="line2d_56">
    <path d="M 280.772054 107.439912 
L 282.91418 107.439852 
L 285.056306 107.439697 
L 287.198432 107.439698 
L 289.340558 107.439716 
L 291.482683 107.439872 
L 293.624809 107.43988 
L 295.766935 107.439878 
L 297.909061 107.439871 
L 300.051187 107.439864 
L 302.193313 107.439854 
L 304.335439 107.439852 
L 306.477565 107.376396 
L 308.619691 107.224229 
L 310.761817 107.015813 
L 312.903942 106.645499 
L 315.046068 106.342447 
L 317.188194 105.951718 
L 319.33032 105.38467 
L 321.472446 104.843436 
L 323.614572 104.390807 
L 325.756698 104.29928 
L 327.898824 103.719501 
L 330.04095 102.256116 
L 332.183076 100.946917 
L 334.325201 99.283282 
L 336.467327 98.744777 
L 338.609453 96.698234 
L 340.751579 94.516555 
L 342.893705 92.344932 
L 345.035831 90.032418 
L 347.177957 89.07581 
L 349.320083 88.076757 
L 351.462209 85.2755 
L 353.604335 81.302751 
L 355.74646 77.558383 
L 357.888586 75.366291 
L 360.030712 71.596797 
L 362.172838 67.417429 
L 364.314964 62.981951 
L 366.45709 61.914736 
L 368.599216 59.564149 
L 370.741342 57.757881 
L 372.883468 53.51973 
L 375.025594 51.847728 
L 377.167719 49.694181 
L 379.309845 48.616323 
L 381.451971 46.002506 
L 383.594097 43.404359 
L 385.736223 41.516307 
L 387.878349 39.935823 
L 390.020475 39.816335 
L 392.162601 40.573772 
L 394.304727 40.533633 
L 396.446853 38.929797 
L 398.588978 36.873879 
L 400.731104 33.513412 
L 402.87323 30.532197 
L 405.015356 27.839148 
L 407.157482 28.454781 
L 409.299608 30.17403 
L 411.441734 31.269261 
L 413.58386 30.218089 
L 415.725986 28.552503 
L 417.868112 27.602961 
L 420.010237 27.021949 
L 422.152363 26.884402 
L 424.294489 26.884402 
L 426.436615 26.884402 
L 428.578741 26.884402 
L 430.720867 26.884402 
L 432.862993 26.884402 
L 435.005119 26.884402 
" clip-path="url(#pbb4b21497f)" style="fill: none; stroke: #2ca02c; stroke-width: 1.5; stroke-linecap: square"/>
   </g>
   <g id="line2d_57">
    <path d="M 280.772054 107.439912 
L 282.91418 107.439869 
L 285.056306 107.439869 
L 287.198432 107.439871 
L 289.340558 107.439873 
L 291.482683 107.439878 
L 293.624809 107.421659 
L 295.766935 107.380533 
L 297.909061 107.287063 
L 300.051187 107.222595 
L 302.193313 107.11732 
L 304.335439 107.022317 
L 306.477565 106.881736 
L 308.619691 106.615684 
L 310.761817 106.198531 
L 312.903942 105.54128 
L 315.046068 104.986738 
L 317.188194 104.670586 
L 319.33032 104.249322 
L 321.472446 103.314456 
L 323.614572 102.105918 
L 325.756698 101.028407 
L 327.898824 99.894936 
L 330.04095 97.766659 
L 332.183076 96.336354 
L 334.325201 94.780442 
L 336.467327 93.370839 
L 338.609453 89.389081 
L 340.751579 85.454752 
L 342.893705 81.652112 
L 345.035831 78.368595 
L 347.177957 75.335308 
L 349.320083 72.038001 
L 351.462209 69.308199 
L 353.604335 63.03857 
L 355.74646 59.348304 
L 357.888586 57.265188 
L 360.030712 54.94737 
L 362.172838 52.855449 
L 364.314964 51.475969 
L 366.45709 51.22109 
L 368.599216 49.807417 
L 370.741342 46.992691 
L 372.883468 44.083255 
L 375.025594 42.851612 
L 377.167719 40.952079 
L 379.309845 39.100547 
L 381.451971 36.368354 
L 383.594097 34.424995 
L 385.736223 32.859137 
L 387.878349 32.191834 
L 390.020475 30.891769 
L 392.162601 30.895781 
L 394.304727 29.690164 
L 396.446853 29.034029 
L 398.588978 28.091427 
L 400.731104 27.437308 
L 402.87323 27.437308 
L 405.015356 26.884402 
L 407.157482 26.884402 
L 409.299608 26.884402 
L 411.441734 26.884402 
L 413.58386 26.884402 
L 415.725986 26.884402 
L 417.868112 26.884402 
L 420.010237 26.884402 
" clip-path="url(#pbb4b21497f)" style="fill: none; stroke: #d62728; stroke-width: 1.5; stroke-linecap: square"/>
   </g>
   <g id="line2d_58">
    <path d="M 280.772054 107.439937 
L 282.91418 107.439909 
L 285.056306 107.439916 
L 287.198432 107.439914 
L 289.340558 107.439912 
L 291.482683 107.439911 
L 293.624809 107.439896 
L 295.766935 107.439893 
L 297.909061 107.439892 
L 300.051187 107.439907 
L 302.193313 107.373298 
L 304.335439 107.225252 
L 306.477565 107.126484 
L 308.619691 107.038774 
L 310.761817 107.00323 
L 312.903942 106.91309 
L 315.046068 106.84145 
L 317.188194 106.65685 
L 319.33032 106.330197 
L 321.472446 106.114504 
L 323.614572 106.078106 
L 325.756698 106.166879 
L 327.898824 106.073259 
L 330.04095 105.977752 
L 332.183076 105.761211 
L 334.325201 105.502176 
L 336.467327 105.203922 
L 338.609453 104.937039 
L 340.751579 104.914527 
L 342.893705 104.442765 
L 345.035831 102.76958 
L 347.177957 98.197804 
L 349.320083 96.100521 
L 351.462209 96.238549 
L 353.604335 99.78829 
L 355.74646 101.285018 
L 357.888586 101.878381 
L 360.030712 101.663692 
L 362.172838 101.420239 
L 364.314964 101.11445 
L 366.45709 100.675938 
L 368.599216 100.159818 
L 370.741342 99.841862 
L 372.883468 98.684093 
L 375.025594 98.261281 
L 377.167719 97.718441 
L 379.309845 98.107796 
L 381.451971 97.017791 
L 383.594097 96.454684 
L 385.736223 96.622829 
L 387.878349 97.870608 
L 390.020475 98.483396 
L 392.162601 98.238064 
L 394.304727 97.507112 
L 396.446853 97.188061 
L 398.588978 96.692156 
L 400.731104 96.754565 
L 402.87323 96.17773 
L 405.015356 96.088538 
L 407.157482 95.472574 
L 409.299608 95.103343 
L 411.441734 94.443015 
L 413.58386 94.04153 
L 415.725986 92.709324 
L 417.868112 92.815389 
L 420.010237 92.820062 
L 422.152363 93.615735 
L 424.294489 93.048142 
L 426.436615 92.543489 
L 428.578741 91.989113 
L 430.720867 91.390339 
L 432.862993 90.992577 
L 435.005119 90.613348 
L 437.147245 89.722271 
L 439.289371 88.597071 
L 441.431496 87.788598 
L 443.573622 86.836291 
L 445.715748 86.710849 
L 447.857874 86.4054 
L 450 86.985642 
" clip-path="url(#pbb4b21497f)" style="fill: none; stroke: #9467bd; stroke-width: 1.5; stroke-linecap: square"/>
   </g>
   <g id="line2d_59">
    <path d="M 280.772054 107.439944 
L 282.91418 107.439918 
L 285.056306 107.43992 
L 287.198432 107.439923 
L 289.340558 107.439922 
L 291.482683 107.439922 
L 293.624809 107.439921 
L 295.766935 107.439919 
L 297.909061 107.439918 
L 300.051187 107.439918 
L 302.193313 107.439919 
L 304.335439 107.43992 
L 306.477565 107.439916 
L 308.619691 107.439911 
L 310.761817 107.439906 
L 312.903942 107.439906 
L 315.046068 107.439907 
L 317.188194 107.439907 
L 319.33032 107.439907 
L 321.472446 107.439904 
L 323.614572 107.439901 
L 325.756698 107.4399 
L 327.898824 107.439901 
L 330.04095 107.439902 
L 332.183076 107.439902 
L 334.325201 107.439901 
L 336.467327 107.439901 
L 338.609453 107.439906 
L 340.751579 107.439908 
L 342.893705 107.439904 
L 345.035831 107.439886 
L 347.177957 107.43987 
L 349.320083 107.43986 
L 351.462209 107.421556 
L 353.604335 107.42156 
L 355.74646 107.42156 
L 357.888586 107.439871 
L 360.030712 107.43988 
L 362.172838 107.439889 
L 364.314964 107.43989 
L 366.45709 107.439889 
L 368.599216 107.439893 
L 370.741342 107.439887 
L 372.883468 107.43988 
L 375.025594 107.415491 
L 377.167719 107.415499 
L 379.309845 107.415499 
L 381.451971 107.439875 
L 383.594097 107.439863 
L 385.736223 107.439872 
L 387.878349 107.439889 
L 390.020475 107.439901 
L 392.162601 107.439904 
L 394.304727 107.439898 
L 396.446853 107.434872 
L 398.588978 107.434873 
L 400.731104 107.434879 
L 402.87323 107.432227 
L 405.015356 107.420567 
L 407.157482 107.349411 
L 409.299608 107.357092 
L 411.441734 107.368752 
L 413.58386 107.439904 
L 415.725986 107.430345 
L 417.868112 107.430343 
L 420.010237 107.384697 
L 422.152363 107.383205 
L 424.294489 107.324736 
L 426.436615 107.35413 
L 428.578741 107.365184 
L 430.720867 107.354717 
L 432.862993 107.370972 
L 435.005119 107.37097 
L 437.147245 107.359416 
L 439.289371 107.359417 
L 441.431496 107.359417 
L 443.573622 107.426668 
L 445.715748 107.426669 
L 447.857874 107.411036 
L 450 107.393007 
" clip-path="url(#pbb4b21497f)" style="fill: none; stroke: #8c564b; stroke-width: 1.5; stroke-linecap: square"/>
   </g>
   <g id="line2d_60">
    <path d="M 280.772054 107.439942 
L 282.91418 107.065025 
L 285.056306 106.671306 
L 287.198432 106.303745 
L 289.340558 106.335259 
L 291.482683 106.359798 
L 293.624809 106.402891 
L 295.766935 106.405999 
L 297.909061 106.427209 
L 300.051187 106.394241 
L 302.193313 106.337627 
L 304.335439 106.353114 
L 306.477565 106.316868 
L 308.619691 106.348728 
L 310.761817 106.349807 
L 312.903942 106.418004 
L 315.046068 106.453126 
L 317.188194 106.353485 
L 319.33032 106.355062 
L 321.472446 106.357132 
L 323.614572 106.476552 
L 325.756698 106.346617 
L 327.898824 106.302237 
L 330.04095 106.250705 
L 332.183076 106.310999 
L 334.325201 106.331994 
L 336.467327 106.323075 
L 338.609453 106.365466 
L 340.751579 106.31769 
L 342.893705 106.317305 
L 345.035831 106.330929 
L 347.177957 106.419044 
L 349.320083 106.428088 
L 351.462209 106.386926 
L 353.604335 106.204104 
L 355.74646 106.201091 
L 357.888586 106.125014 
L 360.030712 106.217427 
L 362.172838 106.009821 
L 364.314964 106.067664 
L 366.45709 106.060685 
L 368.599216 106.268292 
L 370.741342 106.227765 
L 372.883468 106.192339 
L 375.025594 106.137258 
L 377.167719 106.202787 
L 379.309845 106.303993 
L 381.451971 106.335828 
L 383.594097 106.272525 
L 385.736223 106.24458 
L 387.878349 106.207942 
L 390.020475 106.228752 
L 392.162601 106.158034 
L 394.304727 106.159809 
L 396.446853 106.115699 
L 398.588978 106.169113 
L 400.731104 106.193349 
L 402.87323 106.227643 
L 405.015356 106.237615 
L 407.157482 106.192598 
L 409.299608 106.252458 
L 411.441734 106.155489 
L 413.58386 106.13932 
L 415.725986 106.056891 
L 417.868112 106.154327 
L 420.010237 106.107354 
L 422.152363 106.129427 
L 424.294489 106.128883 
L 426.436615 106.191238 
L 428.578741 106.29292 
L 430.720867 106.228646 
L 432.862993 106.283874 
L 435.005119 106.145615 
L 437.147245 106.110056 
L 439.289371 105.998748 
L 441.431496 106.020589 
L 443.573622 105.791763 
L 445.715748 105.824592 
L 447.857874 105.920242 
L 450 106.408453 
" clip-path="url(#pbb4b21497f)" style="fill: none; stroke: #e377c2; stroke-width: 1.5; stroke-linecap: square"/>
   </g>
   <g id="patch_8">
    <path d="M 280.772054 107.44 
L 280.772054 26.88 
" style="fill: none; stroke: #000000; stroke-width: 0.8; stroke-linejoin: miter; stroke-linecap: square"/>
   </g>
   <g id="patch_9">
    <path d="M 450 107.44 
L 450 26.88 
" style="fill: none; stroke: #000000; stroke-width: 0.8; stroke-linejoin: miter; stroke-linecap: square"/>
   </g>
   <g id="patch_10">
    <path d="M 280.772054 107.44 
L 450 107.44 
" style="fill: none; stroke: #000000; stroke-width: 0.8; stroke-linejoin: miter; stroke-linecap: square"/>
   </g>
   <g id="patch_11">
    <path d="M 280.772054 26.88 
L 450 26.88 
" style="fill: none; stroke: #000000; stroke-width: 0.8; stroke-linejoin: miter; stroke-linecap: square"/>
   </g>
   <g id="text_20">
    <!-- 50% -->
    <g transform="translate(352.050089 20.88) scale(0.12 -0.12)">
     <defs>
      <path id="DejaVuSans-35" d="M 691 4666 
L 3169 4666 
L 3169 4134 
L 1269 4134 
L 1269 2991 
Q 1406 3038 1543 3061 
Q 1681 3084 1819 3084 
Q 2600 3084 3056 2656 
Q 3513 2228 3513 1497 
Q 3513 744 3044 326 
Q 2575 -91 1722 -91 
Q 1428 -91 1123 -41 
Q 819 9 494 109 
L 494 744 
Q 775 591 1075 516 
Q 1375 441 1709 441 
Q 2250 441 2565 725 
Q 2881 1009 2881 1497 
Q 2881 1984 2565 2268 
Q 2250 2553 1709 2553 
Q 1456 2553 1204 2497 
Q 953 2441 691 2322 
L 691 4666 
z
" transform="scale(0.015625)"/>
     </defs>
     <use xlink:href="#DejaVuSans-35"/>
     <use xlink:href="#DejaVuSans-30" x="63.623047"/>
     <use xlink:href="#DejaVuSans-25" x="127.246094"/>
    </g>
   </g>
  </g>
  <g id="axes_3">
   <g id="patch_12">
    <path d="M 55.772054 246.04 
L 225 246.04 
L 225 165.48 
L 55.772054 165.48 
z
" style="fill: #ffffff"/>
   </g>
   <g id="matplotlib.axis_5">
    <g id="xtick_9">
     <g id="line2d_61">
      <g>
       <use xlink:href="#m12db4833c5" x="55.772054" y="246.04" style="stroke: #000000; stroke-width: 0.8"/>
      </g>
     </g>
     <g id="text_21">
      <!-- 0 -->
      <g transform="translate(52.590804 260.638438) scale(0.1 -0.1)">
       <use xlink:href="#DejaVuSans-30"/>
      </g>
     </g>
    </g>
    <g id="xtick_10">
     <g id="line2d_62">
      <g>
       <use xlink:href="#m12db4833c5" x="98.614572" y="246.04" style="stroke: #000000; stroke-width: 0.8"/>
      </g>
     </g>
     <g id="text_22">
      <!-- 20 -->
      <g transform="translate(92.252072 260.638438) scale(0.1 -0.1)">
       <use xlink:href="#DejaVuSans-32"/>
       <use xlink:href="#DejaVuSans-30" x="63.623047"/>
      </g>
     </g>
    </g>
    <g id="xtick_11">
     <g id="line2d_63">
      <g>
       <use xlink:href="#m12db4833c5" x="141.45709" y="246.04" style="stroke: #000000; stroke-width: 0.8"/>
      </g>
     </g>
     <g id="text_23">
      <!-- 40 -->
      <g transform="translate(135.09459 260.638438) scale(0.1 -0.1)">
       <use xlink:href="#DejaVuSans-34"/>
       <use xlink:href="#DejaVuSans-30" x="63.623047"/>
      </g>
     </g>
    </g>
    <g id="xtick_12">
     <g id="line2d_64">
      <g>
       <use xlink:href="#m12db4833c5" x="184.299608" y="246.04" style="stroke: #000000; stroke-width: 0.8"/>
      </g>
     </g>
     <g id="text_24">
      <!-- 60 -->
      <g transform="translate(177.937108 260.638438) scale(0.1 -0.1)">
       <use xlink:href="#DejaVuSans-36"/>
       <use xlink:href="#DejaVuSans-30" x="63.623047"/>
      </g>
     </g>
    </g>
    <g id="text_25">
     <!-- n -->
     <g transform="translate(137.217277 274.316562) scale(0.1 -0.1)">
      <use xlink:href="#DejaVuSans-6e"/>
     </g>
    </g>
   </g>
   <g id="matplotlib.axis_6">
    <g id="ytick_39">
     <g id="line2d_65">
      <g>
       <use xlink:href="#me982ec64fe" x="55.772054" y="243.671186" style="stroke: #000000; stroke-width: 0.8"/>
      </g>
     </g>
     <g id="text_26">
      <!-- $\mathdefault{10^{-1}}$ -->
      <g transform="translate(25.272054 247.470405) scale(0.1 -0.1)">
       <use xlink:href="#DejaVuSans-31" transform="translate(0 0.684375)"/>
       <use xlink:href="#DejaVuSans-30" transform="translate(63.623047 0.684375)"/>
       <use xlink:href="#DejaVuSans-2212" transform="translate(128.203125 38.965625) scale(0.7)"/>
       <use xlink:href="#DejaVuSans-31" transform="translate(186.855469 38.965625) scale(0.7)"/>
      </g>
     </g>
    </g>
    <g id="ytick_40">
     <g id="line2d_66">
      <g>
       <use xlink:href="#me982ec64fe" x="55.772054" y="222.351861" style="stroke: #000000; stroke-width: 0.8"/>
      </g>
     </g>
     <g id="text_27">
      <!-- $\mathdefault{10^{0}}$ -->
      <g transform="translate(31.172054 226.15108) scale(0.1 -0.1)">
       <use xlink:href="#DejaVuSans-31" transform="translate(0 0.765625)"/>
       <use xlink:href="#DejaVuSans-30" transform="translate(63.623047 0.765625)"/>
       <use xlink:href="#DejaVuSans-30" transform="translate(128.203125 39.046875) scale(0.7)"/>
      </g>
     </g>
    </g>
    <g id="ytick_41">
     <g id="line2d_67">
      <g>
       <use xlink:href="#me982ec64fe" x="55.772054" y="168.860584" style="stroke: #000000; stroke-width: 0.8"/>
      </g>
     </g>
     <g id="text_28">
      <!-- $\mathdefault{10^{1}}$ -->
      <g transform="translate(31.172054 172.659802) scale(0.1 -0.1)">
       <use xlink:href="#DejaVuSans-31" transform="translate(0 0.684375)"/>
       <use xlink:href="#DejaVuSans-30" transform="translate(63.623047 0.684375)"/>
       <use xlink:href="#DejaVuSans-31" transform="translate(128.203125 38.965625) scale(0.7)"/>
      </g>
     </g>
    </g>
    <g id="ytick_42">
     <g id="line2d_68">
      <g>
       <use xlink:href="#m2112e36bcc" x="55.772054" y="241.302372" style="stroke: #000000; stroke-width: 0.6"/>
      </g>
     </g>
    </g>
    <g id="ytick_43">
     <g id="line2d_69">
      <g>
       <use xlink:href="#m2112e36bcc" x="55.772054" y="238.933558" style="stroke: #000000; stroke-width: 0.6"/>
      </g>
     </g>
    </g>
    <g id="ytick_44">
     <g id="line2d_70">
      <g>
       <use xlink:href="#m2112e36bcc" x="55.772054" y="236.564744" style="stroke: #000000; stroke-width: 0.6"/>
      </g>
     </g>
    </g>
    <g id="ytick_45">
     <g id="line2d_71">
      <g>
       <use xlink:href="#m2112e36bcc" x="55.772054" y="234.19593" style="stroke: #000000; stroke-width: 0.6"/>
      </g>
     </g>
    </g>
    <g id="ytick_46">
     <g id="line2d_72">
      <g>
       <use xlink:href="#m2112e36bcc" x="55.772054" y="231.827116" style="stroke: #000000; stroke-width: 0.6"/>
      </g>
     </g>
    </g>
    <g id="ytick_47">
     <g id="line2d_73">
      <g>
       <use xlink:href="#m2112e36bcc" x="55.772054" y="229.458303" style="stroke: #000000; stroke-width: 0.6"/>
      </g>
     </g>
    </g>
    <g id="ytick_48">
     <g id="line2d_74">
      <g>
       <use xlink:href="#m2112e36bcc" x="55.772054" y="227.089489" style="stroke: #000000; stroke-width: 0.6"/>
      </g>
     </g>
    </g>
    <g id="ytick_49">
     <g id="line2d_75">
      <g>
       <use xlink:href="#m2112e36bcc" x="55.772054" y="224.720675" style="stroke: #000000; stroke-width: 0.6"/>
      </g>
     </g>
    </g>
    <g id="ytick_50">
     <g id="line2d_76">
      <g>
       <use xlink:href="#m2112e36bcc" x="55.772054" y="198.663722" style="stroke: #000000; stroke-width: 0.6"/>
      </g>
     </g>
    </g>
    <g id="ytick_51">
     <g id="line2d_77">
      <g>
       <use xlink:href="#m2112e36bcc" x="55.772054" y="191.155428" style="stroke: #000000; stroke-width: 0.6"/>
      </g>
     </g>
    </g>
    <g id="ytick_52">
     <g id="line2d_78">
      <g>
       <use xlink:href="#m2112e36bcc" x="55.772054" y="185.828209" style="stroke: #000000; stroke-width: 0.6"/>
      </g>
     </g>
    </g>
    <g id="ytick_53">
     <g id="line2d_79">
      <g>
       <use xlink:href="#m2112e36bcc" x="55.772054" y="181.696097" style="stroke: #000000; stroke-width: 0.6"/>
      </g>
     </g>
    </g>
    <g id="ytick_54">
     <g id="line2d_80">
      <g>
       <use xlink:href="#m2112e36bcc" x="55.772054" y="178.319915" style="stroke: #000000; stroke-width: 0.6"/>
      </g>
     </g>
    </g>
    <g id="ytick_55">
     <g id="line2d_81">
      <g>
       <use xlink:href="#m2112e36bcc" x="55.772054" y="175.465394" style="stroke: #000000; stroke-width: 0.6"/>
      </g>
     </g>
    </g>
    <g id="ytick_56">
     <g id="line2d_82">
      <g>
       <use xlink:href="#m2112e36bcc" x="55.772054" y="172.992696" style="stroke: #000000; stroke-width: 0.6"/>
      </g>
     </g>
    </g>
    <g id="ytick_57">
     <g id="line2d_83">
      <g>
       <use xlink:href="#m2112e36bcc" x="55.772054" y="170.811621" style="stroke: #000000; stroke-width: 0.6"/>
      </g>
     </g>
    </g>
    <g id="text_29">
     <!-- Time [s] -->
     <g transform="translate(19.192366 226.088906) rotate(-90) scale(0.1 -0.1)">
      <use xlink:href="#DejaVuSans-54"/>
      <use xlink:href="#DejaVuSans-69" x="57.958984"/>
      <use xlink:href="#DejaVuSans-6d" x="85.742188"/>
      <use xlink:href="#DejaVuSans-65" x="183.154297"/>
      <use xlink:href="#DejaVuSans-20" x="244.677734"/>
      <use xlink:href="#DejaVuSans-5b" x="276.464844"/>
      <use xlink:href="#DejaVuSans-73" x="315.478516"/>
      <use xlink:href="#DejaVuSans-5d" x="367.578125"/>
     </g>
    </g>
   </g>
   <g id="line2d_84">
    <path d="M 55.772054 246.039909 
L 57.91418 246.029392 
L 60.056306 246.006701 
L 62.198432 245.945113 
L 64.340558 245.691212 
L 66.482683 245.293933 
L 68.624809 242.657297 
L 70.766935 226.941552 
L 72.909061 189.409873 
L 75.051187 174.988433 
L 77.193313 165.484402 
" clip-path="url(#p7b5cf02e1a)" style="fill: none; stroke: #1f77b4; stroke-width: 1.5; stroke-linecap: square"/>
   </g>
   <g id="line2d_85">
    <path d="M 55.772054 246.039758 
L 57.91418 246.039663 
L 60.056306 246.033365 
L 62.198432 246.021068 
L 64.340558 246.02111 
L 66.482683 246.027419 
L 68.624809 246.039802 
L 70.766935 245.964631 
L 72.909061 245.964677 
L 75.051187 245.964677 
L 77.193313 245.930994 
L 79.335439 245.850561 
L 81.477565 245.769297 
L 83.619691 245.642474 
L 85.761817 245.308866 
L 87.903942 244.969462 
L 90.046068 244.57814 
L 92.188194 244.203595 
L 94.33032 243.628839 
L 96.472446 242.969911 
L 98.614572 241.952997 
L 100.756698 241.014461 
L 102.898824 239.685576 
L 105.04095 238.082922 
L 107.183076 236.576642 
L 109.325201 234.675082 
L 111.467327 232.991854 
L 113.609453 231.029488 
L 115.751579 229.265244 
L 117.893705 226.067363 
L 120.035831 222.98923 
L 122.177957 218.36564 
L 124.320083 210.001552 
L 126.462209 204.285103 
L 128.604335 199.623399 
L 130.74646 196.420271 
L 132.888586 193.514412 
L 135.030712 191.734628 
L 137.172838 191.406221 
L 139.314964 189.61141 
L 141.45709 188.348594 
L 143.599216 187.253914 
L 145.741342 186.846358 
L 147.883468 184.005218 
L 150.025594 179.955119 
L 152.167719 178.232149 
L 154.309845 177.328357 
L 156.451971 177.924869 
L 158.594097 176.369932 
L 160.736223 174.703458 
L 162.878349 173.280921 
L 165.020475 171.731143 
L 167.162601 170.051141 
L 169.304727 168.329427 
L 171.446853 166.846094 
L 173.588978 166.072052 
L 175.731104 166.480633 
L 177.87323 166.850606 
L 180.015356 167.052727 
L 182.157482 166.050094 
L 184.299608 165.672074 
L 186.441734 165.484402 
L 188.58386 165.484402 
L 190.725986 165.484402 
L 192.868112 165.484402 
L 195.010237 165.484402 
" clip-path="url(#p7b5cf02e1a)" style="fill: none; stroke: #ff7f0e; stroke-width: 1.5; stroke-linecap: square"/>
   </g>
   <g id="line2d_86">
    <path d="M 55.772054 246.039852 
L 57.91418 246.039723 
L 60.056306 246.0397 
L 62.198432 246.022541 
L 64.340558 246.022522 
L 66.482683 246.022573 
L 68.624809 246.039757 
L 70.766935 246.039851 
L 72.909061 245.918928 
L 75.051187 245.731125 
L 77.193313 245.454652 
L 79.335439 245.278954 
L 81.477565 245.01965 
L 83.619691 244.528341 
L 85.761817 243.838555 
L 87.903942 243.033839 
L 90.046068 242.294728 
L 92.188194 240.99521 
L 94.33032 239.51501 
L 96.472446 237.718305 
L 98.614572 235.962451 
L 100.756698 234.19269 
L 102.898824 231.603034 
L 105.04095 228.451324 
L 107.183076 224.00571 
L 109.325201 220.463888 
L 111.467327 215.909128 
L 113.609453 211.755825 
L 115.751579 207.871326 
L 117.893705 199.373402 
L 120.035831 195.728013 
L 122.177957 192.208433 
L 124.320083 188.179398 
L 126.462209 186.385077 
L 128.604335 184.199462 
L 130.74646 177.949412 
L 132.888586 176.00124 
L 135.030712 174.238135 
L 137.172838 177.019319 
L 139.314964 175.488071 
L 141.45709 174.212798 
L 143.599216 172.489706 
L 145.741342 170.000518 
L 147.883468 167.66036 
L 150.025594 165.976626 
L 152.167719 166.438389 
L 154.309845 166.780332 
L 156.451971 167.009365 
L 158.594097 166.052492 
L 160.736223 165.697865 
L 162.878349 165.484402 
L 165.020475 165.484402 
L 167.162601 165.484402 
L 169.304727 165.484402 
L 171.446853 165.484402 
" clip-path="url(#p7b5cf02e1a)" style="fill: none; stroke: #2ca02c; stroke-width: 1.5; stroke-linecap: square"/>
   </g>
   <g id="line2d_87">
    <path d="M 55.772054 246.039827 
L 57.91418 246.034264 
L 60.056306 246.030766 
L 62.198432 245.966628 
L 64.340558 245.972132 
L 66.482683 245.975652 
L 68.624809 245.93967 
L 70.766935 245.850309 
L 72.909061 245.640865 
L 75.051187 245.41563 
L 77.193313 245.097109 
L 79.335439 244.632257 
L 81.477565 243.836088 
L 83.619691 242.777233 
L 85.761817 241.323973 
L 87.903942 239.938761 
L 90.046068 238.423999 
L 92.188194 236.867134 
L 94.33032 234.561764 
L 96.472446 231.43997 
L 98.614572 227.904576 
L 100.756698 223.904527 
L 102.898824 215.012031 
L 105.04095 210.148913 
L 107.183076 204.046842 
L 109.325201 202.651775 
L 111.467327 196.007211 
L 113.609453 193.054229 
L 115.751579 190.900616 
L 117.893705 188.467083 
L 120.035831 185.771283 
L 122.177957 180.199893 
L 124.320083 178.183674 
L 126.462209 175.85342 
L 128.604335 172.911458 
L 130.74646 171.474635 
L 132.888586 169.519002 
L 135.030712 170.066062 
L 137.172838 167.635768 
L 139.314964 167.830696 
L 141.45709 167.560969 
L 143.599216 168.070117 
L 145.741342 166.765438 
L 147.883468 165.938871 
L 150.025594 165.484402 
L 152.167719 165.484402 
L 154.309845 165.484402 
L 156.451971 165.484402 
L 158.594097 165.484402 
" clip-path="url(#p7b5cf02e1a)" style="fill: none; stroke: #d62728; stroke-width: 1.5; stroke-linecap: square"/>
   </g>
   <g id="line2d_88">
    <path d="M 55.772054 246.039916 
L 57.91418 246.039843 
L 60.056306 246.039857 
L 62.198432 246.039854 
L 64.340558 246.039874 
L 66.482683 246.039873 
L 68.624809 246.030647 
L 70.766935 246.003711 
L 72.909061 245.959298 
L 75.051187 245.957354 
L 77.193313 245.984312 
L 79.335439 245.88931 
L 81.477565 245.851517 
L 83.619691 245.605071 
L 85.761817 245.624343 
L 87.903942 245.523047 
L 90.046068 245.6142 
L 92.188194 245.374776 
L 94.33032 245.25432 
L 96.472446 245.012992 
L 98.614572 244.930762 
L 100.756698 244.698798 
L 102.898824 244.61862 
L 105.04095 244.465033 
L 107.183076 244.256766 
L 109.325201 244.111568 
L 111.467327 243.6234 
L 113.609453 243.545093 
L 115.751579 243.325414 
L 117.893705 243.498991 
L 120.035831 243.277706 
L 122.177957 243.012861 
L 124.320083 242.799422 
L 126.462209 242.485801 
L 128.604335 242.163888 
L 130.74646 241.859805 
L 132.888586 241.537709 
L 135.030712 241.518821 
L 137.172838 241.237887 
L 139.314964 241.273168 
L 141.45709 240.594422 
L 143.599216 240.067149 
L 145.741342 239.654676 
L 147.883468 239.670276 
L 150.025594 239.731663 
L 152.167719 239.365035 
L 154.309845 239.104411 
L 156.451971 238.703944 
L 158.594097 238.004218 
L 160.736223 237.552476 
L 162.878349 237.230653 
L 165.020475 237.021577 
L 167.162601 236.68077 
L 169.304727 236.385214 
L 171.446853 235.822329 
L 173.588978 235.179171 
L 175.731104 234.951428 
L 177.87323 235.185558 
L 180.015356 235.030993 
L 182.157482 234.477272 
L 184.299608 233.962098 
L 186.441734 233.53159 
L 188.58386 232.752622 
L 190.725986 232.464583 
L 192.868112 232.314944 
L 195.010237 232.115745 
L 197.152363 231.636915 
L 199.294489 230.910401 
L 201.436615 230.59076 
L 203.578741 229.787383 
L 205.720867 227.161042 
L 207.862993 226.397238 
L 210.005119 226.154669 
L 212.147245 226.384108 
L 214.289371 222.749881 
L 216.431496 219.116513 
L 218.573622 217.366971 
L 220.715748 217.753867 
L 222.857874 217.260809 
L 225 215.79374 
" clip-path="url(#p7b5cf02e1a)" style="fill: none; stroke: #9467bd; stroke-width: 1.5; stroke-linecap: square"/>
   </g>
   <g id="line2d_89">
    <path d="M 55.772054 246.0399 
L 57.91418 246.039853 
L 60.056306 246.039864 
L 62.198432 246.039887 
L 64.340558 246.039896 
L 66.482683 246.039894 
L 68.624809 246.039893 
L 70.766935 246.039898 
L 72.909061 246.039897 
L 75.051187 246.0399 
L 77.193313 246.039902 
L 79.335439 246.039905 
L 81.477565 246.039908 
L 83.619691 246.039904 
L 85.761817 246.039902 
L 87.903942 246.039901 
L 90.046068 246.039905 
L 92.188194 246.039905 
L 94.33032 246.039907 
L 96.472446 246.039881 
L 98.614572 246.039867 
L 100.756698 246.039866 
L 102.898824 246.039877 
L 105.04095 246.039884 
L 107.183076 246.039885 
L 109.325201 246.039898 
L 111.467327 246.039908 
L 113.609453 246.039911 
L 115.751579 246.039901 
L 117.893705 246.039899 
L 120.035831 246.039898 
L 122.177957 246.039903 
L 124.320083 246.039904 
L 126.462209 246.039902 
L 128.604335 246.021432 
L 130.74646 245.991377 
L 132.888586 245.991377 
L 135.030712 246.009851 
L 137.172838 246.03991 
L 139.314964 246.039911 
L 141.45709 246.039914 
L 143.599216 246.039913 
L 145.741342 246.034822 
L 147.883468 246.034813 
L 150.025594 245.979815 
L 152.167719 245.976724 
L 154.309845 245.976731 
L 156.451971 246.031728 
L 158.594097 246.039904 
L 160.736223 246.039904 
L 162.878349 246.039905 
L 165.020475 245.982281 
L 167.162601 245.879909 
L 169.304727 245.838785 
L 171.446853 245.739431 
L 173.588978 245.664377 
L 175.731104 245.705501 
L 177.87323 245.832196 
L 180.015356 246.009623 
L 182.157482 246.009621 
L 184.299608 246.01417 
L 186.441734 245.956091 
L 188.58386 245.882783 
L 190.725986 245.73999 
L 192.868112 245.663866 
L 195.010237 245.726528 
L 197.152363 245.837836 
L 199.294489 245.880642 
L 201.436615 245.467374 
L 203.578741 245.008132 
L 205.720867 245.090437 
L 207.862993 245.484707 
L 210.005119 245.980585 
L 212.147245 245.742892 
L 214.289371 245.674587 
L 216.431496 245.269505 
L 218.573622 245.335288 
L 220.715748 245.0582 
L 222.857874 245.16168 
L 225 245.073339 
" clip-path="url(#p7b5cf02e1a)" style="fill: none; stroke: #8c564b; stroke-width: 1.5; stroke-linecap: square"/>
   </g>
   <g id="line2d_90">
    <path d="M 55.772054 246.039927 
L 57.91418 245.397195 
L 60.056306 244.915859 
L 62.198432 244.415772 
L 64.340558 244.586497 
L 66.482683 244.584537 
L 68.624809 244.631026 
L 70.766935 244.666559 
L 72.909061 244.655164 
L 75.051187 244.734883 
L 77.193313 244.728835 
L 79.335439 244.856524 
L 81.477565 244.78015 
L 83.619691 244.851608 
L 85.761817 244.834214 
L 87.903942 244.929233 
L 90.046068 244.923727 
L 92.188194 244.925743 
L 94.33032 244.874613 
L 96.472446 244.865544 
L 98.614572 244.872212 
L 100.756698 244.925874 
L 102.898824 244.958287 
L 105.04095 244.962063 
L 107.183076 244.856819 
L 109.325201 244.819439 
L 111.467327 244.867358 
L 113.609453 244.905452 
L 115.751579 244.969239 
L 117.893705 244.868281 
L 120.035831 244.844127 
L 122.177957 244.788066 
L 124.320083 244.803436 
L 126.462209 244.912591 
L 128.604335 244.919628 
L 130.74646 244.96988 
L 132.888586 244.918258 
L 135.030712 244.900256 
L 137.172838 244.85724 
L 139.314964 244.855831 
L 141.45709 244.873804 
L 143.599216 244.91064 
L 145.741342 244.933391 
L 147.883468 244.94016 
L 150.025594 244.869764 
L 152.167719 244.870227 
L 154.309845 244.804404 
L 156.451971 244.858061 
L 158.594097 244.787179 
L 160.736223 244.778957 
L 162.878349 244.669483 
L 165.020475 244.662841 
L 167.162601 244.732608 
L 169.304727 244.767567 
L 171.446853 244.800498 
L 173.588978 244.72026 
L 175.731104 244.678988 
L 177.87323 244.62997 
L 180.015356 244.640194 
L 182.157482 244.760573 
L 184.299608 244.782646 
L 186.441734 244.683122 
L 188.58386 244.516846 
L 190.725986 244.443723 
L 192.868112 244.499551 
L 195.010237 244.608801 
L 197.152363 244.523251 
L 199.294489 244.607263 
L 201.436615 244.50219 
L 203.578741 244.592532 
L 205.720867 244.151052 
L 207.862993 244.136974 
L 210.005119 244.044398 
L 212.147245 244.297339 
L 214.289371 243.665006 
L 216.431496 243.493342 
L 218.573622 243.333989 
L 220.715748 243.811975 
L 222.857874 243.850085 
L 225 243.847892 
" clip-path="url(#p7b5cf02e1a)" style="fill: none; stroke: #e377c2; stroke-width: 1.5; stroke-linecap: square"/>
   </g>
   <g id="patch_13">
    <path d="M 55.772054 246.04 
L 55.772054 165.48 
" style="fill: none; stroke: #000000; stroke-width: 0.8; stroke-linejoin: miter; stroke-linecap: square"/>
   </g>
   <g id="patch_14">
    <path d="M 225 246.04 
L 225 165.48 
" style="fill: none; stroke: #000000; stroke-width: 0.8; stroke-linejoin: miter; stroke-linecap: square"/>
   </g>
   <g id="patch_15">
    <path d="M 55.772054 246.04 
L 225 246.04 
" style="fill: none; stroke: #000000; stroke-width: 0.8; stroke-linejoin: miter; stroke-linecap: square"/>
   </g>
   <g id="patch_16">
    <path d="M 55.772054 165.48 
L 225 165.48 
" style="fill: none; stroke: #000000; stroke-width: 0.8; stroke-linejoin: miter; stroke-linecap: square"/>
   </g>
   <g id="text_30">
    <!-- 90% -->
    <g transform="translate(127.050089 159.48) scale(0.12 -0.12)">
     <defs>
      <path id="DejaVuSans-39" d="M 703 97 
L 703 672 
Q 941 559 1184 500 
Q 1428 441 1663 441 
Q 2288 441 2617 861 
Q 2947 1281 2994 2138 
Q 2813 1869 2534 1725 
Q 2256 1581 1919 1581 
Q 1219 1581 811 2004 
Q 403 2428 403 3163 
Q 403 3881 828 4315 
Q 1253 4750 1959 4750 
Q 2769 4750 3195 4129 
Q 3622 3509 3622 2328 
Q 3622 1225 3098 567 
Q 2575 -91 1691 -91 
Q 1453 -91 1209 -44 
Q 966 3 703 97 
z
M 1959 2075 
Q 2384 2075 2632 2365 
Q 2881 2656 2881 3163 
Q 2881 3666 2632 3958 
Q 2384 4250 1959 4250 
Q 1534 4250 1286 3958 
Q 1038 3666 1038 3163 
Q 1038 2656 1286 2365 
Q 1534 2075 1959 2075 
z
" transform="scale(0.015625)"/>
     </defs>
     <use xlink:href="#DejaVuSans-39"/>
     <use xlink:href="#DejaVuSans-30" x="63.623047"/>
     <use xlink:href="#DejaVuSans-25" x="127.246094"/>
    </g>
   </g>
  </g>
  <g id="axes_4"/>
  <g id="legend_1">
   <g id="patch_17">
    <path d="M 264.448438 283 
L 453.8 283 
Q 455.8 283 455.8 281 
L 455.8 179.253125 
Q 455.8 177.253125 453.8 177.253125 
L 264.448438 177.253125 
Q 262.448438 177.253125 262.448438 179.253125 
L 262.448438 281 
Q 262.448438 283 264.448438 283 
z
" style="fill: #ffffff; opacity: 0.8; stroke: #cccccc; stroke-linejoin: miter"/>
   </g>
   <g id="line2d_91">
    <path d="M 266.448438 185.351562 
L 276.448438 185.351562 
L 286.448438 185.351562 
" style="fill: none; stroke: #1f77b4; stroke-width: 1.5; stroke-linecap: square"/>
   </g>
   <g id="text_31">
    <!-- Node-based -->
    <g transform="translate(294.448438 188.851562) scale(0.1 -0.1)">
     <defs>
      <path id="DejaVuSans-4e" d="M 628 4666 
L 1478 4666 
L 3547 763 
L 3547 4666 
L 4159 4666 
L 4159 0 
L 3309 0 
L 1241 3903 
L 1241 0 
L 628 0 
L 628 4666 
z
" transform="scale(0.015625)"/>
      <path id="DejaVuSans-6f" d="M 1959 3097 
Q 1497 3097 1228 2736 
Q 959 2375 959 1747 
Q 959 1119 1226 758 
Q 1494 397 1959 397 
Q 2419 397 2687 759 
Q 2956 1122 2956 1747 
Q 2956 2369 2687 2733 
Q 2419 3097 1959 3097 
z
M 1959 3584 
Q 2709 3584 3137 3096 
Q 3566 2609 3566 1747 
Q 3566 888 3137 398 
Q 2709 -91 1959 -91 
Q 1206 -91 779 398 
Q 353 888 353 1747 
Q 353 2609 779 3096 
Q 1206 3584 1959 3584 
z
" transform="scale(0.015625)"/>
      <path id="DejaVuSans-64" d="M 2906 2969 
L 2906 4863 
L 3481 4863 
L 3481 0 
L 2906 0 
L 2906 525 
Q 2725 213 2448 61 
Q 2172 -91 1784 -91 
Q 1150 -91 751 415 
Q 353 922 353 1747 
Q 353 2572 751 3078 
Q 1150 3584 1784 3584 
Q 2172 3584 2448 3432 
Q 2725 3281 2906 2969 
z
M 947 1747 
Q 947 1113 1208 752 
Q 1469 391 1925 391 
Q 2381 391 2643 752 
Q 2906 1113 2906 1747 
Q 2906 2381 2643 2742 
Q 2381 3103 1925 3103 
Q 1469 3103 1208 2742 
Q 947 2381 947 1747 
z
" transform="scale(0.015625)"/>
      <path id="DejaVuSans-2d" d="M 313 2009 
L 1997 2009 
L 1997 1497 
L 313 1497 
L 313 2009 
z
" transform="scale(0.015625)"/>
      <path id="DejaVuSans-62" d="M 3116 1747 
Q 3116 2381 2855 2742 
Q 2594 3103 2138 3103 
Q 1681 3103 1420 2742 
Q 1159 2381 1159 1747 
Q 1159 1113 1420 752 
Q 1681 391 2138 391 
Q 2594 391 2855 752 
Q 3116 1113 3116 1747 
z
M 1159 2969 
Q 1341 3281 1617 3432 
Q 1894 3584 2278 3584 
Q 2916 3584 3314 3078 
Q 3713 2572 3713 1747 
Q 3713 922 3314 415 
Q 2916 -91 2278 -91 
Q 1894 -91 1617 61 
Q 1341 213 1159 525 
L 1159 0 
L 581 0 
L 581 4863 
L 1159 4863 
L 1159 2969 
z
" transform="scale(0.015625)"/>
      <path id="DejaVuSans-61" d="M 2194 1759 
Q 1497 1759 1228 1600 
Q 959 1441 959 1056 
Q 959 750 1161 570 
Q 1363 391 1709 391 
Q 2188 391 2477 730 
Q 2766 1069 2766 1631 
L 2766 1759 
L 2194 1759 
z
M 3341 1997 
L 3341 0 
L 2766 0 
L 2766 531 
Q 2569 213 2275 61 
Q 1981 -91 1556 -91 
Q 1019 -91 701 211 
Q 384 513 384 1019 
Q 384 1609 779 1909 
Q 1175 2209 1959 2209 
L 2766 2209 
L 2766 2266 
Q 2766 2663 2505 2880 
Q 2244 3097 1772 3097 
Q 1472 3097 1187 3025 
Q 903 2953 641 2809 
L 641 3341 
Q 956 3463 1253 3523 
Q 1550 3584 1831 3584 
Q 2591 3584 2966 3190 
Q 3341 2797 3341 1997 
z
" transform="scale(0.015625)"/>
     </defs>
     <use xlink:href="#DejaVuSans-4e"/>
     <use xlink:href="#DejaVuSans-6f" x="74.804688"/>
     <use xlink:href="#DejaVuSans-64" x="135.986328"/>
     <use xlink:href="#DejaVuSans-65" x="199.462891"/>
     <use xlink:href="#DejaVuSans-2d" x="260.986328"/>
     <use xlink:href="#DejaVuSans-62" x="297.070312"/>
     <use xlink:href="#DejaVuSans-61" x="360.546875"/>
     <use xlink:href="#DejaVuSans-73" x="421.826172"/>
     <use xlink:href="#DejaVuSans-65" x="473.925781"/>
     <use xlink:href="#DejaVuSans-64" x="535.449219"/>
    </g>
   </g>
   <g id="line2d_92">
    <path d="M 266.448438 200.029688 
L 276.448438 200.029688 
L 286.448438 200.029688 
" style="fill: none; stroke: #ff7f0e; stroke-width: 1.5; stroke-linecap: square"/>
   </g>
   <g id="text_32">
    <!-- Edge-based - translational -->
    <g transform="translate(294.448438 203.529688) scale(0.1 -0.1)">
     <defs>
      <path id="DejaVuSans-45" d="M 628 4666 
L 3578 4666 
L 3578 4134 
L 1259 4134 
L 1259 2753 
L 3481 2753 
L 3481 2222 
L 1259 2222 
L 1259 531 
L 3634 531 
L 3634 0 
L 628 0 
L 628 4666 
z
" transform="scale(0.015625)"/>
      <path id="DejaVuSans-67" d="M 2906 1791 
Q 2906 2416 2648 2759 
Q 2391 3103 1925 3103 
Q 1463 3103 1205 2759 
Q 947 2416 947 1791 
Q 947 1169 1205 825 
Q 1463 481 1925 481 
Q 2391 481 2648 825 
Q 2906 1169 2906 1791 
z
M 3481 434 
Q 3481 -459 3084 -895 
Q 2688 -1331 1869 -1331 
Q 1566 -1331 1297 -1286 
Q 1028 -1241 775 -1147 
L 775 -588 
Q 1028 -725 1275 -790 
Q 1522 -856 1778 -856 
Q 2344 -856 2625 -561 
Q 2906 -266 2906 331 
L 2906 616 
Q 2728 306 2450 153 
Q 2172 0 1784 0 
Q 1141 0 747 490 
Q 353 981 353 1791 
Q 353 2603 747 3093 
Q 1141 3584 1784 3584 
Q 2172 3584 2450 3431 
Q 2728 3278 2906 2969 
L 2906 3500 
L 3481 3500 
L 3481 434 
z
" transform="scale(0.015625)"/>
      <path id="DejaVuSans-74" d="M 1172 4494 
L 1172 3500 
L 2356 3500 
L 2356 3053 
L 1172 3053 
L 1172 1153 
Q 1172 725 1289 603 
Q 1406 481 1766 481 
L 2356 481 
L 2356 0 
L 1766 0 
Q 1100 0 847 248 
Q 594 497 594 1153 
L 594 3053 
L 172 3053 
L 172 3500 
L 594 3500 
L 594 4494 
L 1172 4494 
z
" transform="scale(0.015625)"/>
      <path id="DejaVuSans-72" d="M 2631 2963 
Q 2534 3019 2420 3045 
Q 2306 3072 2169 3072 
Q 1681 3072 1420 2755 
Q 1159 2438 1159 1844 
L 1159 0 
L 581 0 
L 581 3500 
L 1159 3500 
L 1159 2956 
Q 1341 3275 1631 3429 
Q 1922 3584 2338 3584 
Q 2397 3584 2469 3576 
Q 2541 3569 2628 3553 
L 2631 2963 
z
" transform="scale(0.015625)"/>
      <path id="DejaVuSans-6c" d="M 603 4863 
L 1178 4863 
L 1178 0 
L 603 0 
L 603 4863 
z
" transform="scale(0.015625)"/>
     </defs>
     <use xlink:href="#DejaVuSans-45"/>
     <use xlink:href="#DejaVuSans-64" x="63.183594"/>
     <use xlink:href="#DejaVuSans-67" x="126.660156"/>
     <use xlink:href="#DejaVuSans-65" x="190.136719"/>
     <use xlink:href="#DejaVuSans-2d" x="251.660156"/>
     <use xlink:href="#DejaVuSans-62" x="287.744141"/>
     <use xlink:href="#DejaVuSans-61" x="351.220703"/>
     <use xlink:href="#DejaVuSans-73" x="412.5"/>
     <use xlink:href="#DejaVuSans-65" x="464.599609"/>
     <use xlink:href="#DejaVuSans-64" x="526.123047"/>
     <use xlink:href="#DejaVuSans-20" x="589.599609"/>
     <use xlink:href="#DejaVuSans-2d" x="621.386719"/>
     <use xlink:href="#DejaVuSans-20" x="657.470703"/>
     <use xlink:href="#DejaVuSans-74" x="689.257812"/>
     <use xlink:href="#DejaVuSans-72" x="728.466797"/>
     <use xlink:href="#DejaVuSans-61" x="769.580078"/>
     <use xlink:href="#DejaVuSans-6e" x="830.859375"/>
     <use xlink:href="#DejaVuSans-73" x="894.238281"/>
     <use xlink:href="#DejaVuSans-6c" x="946.337891"/>
     <use xlink:href="#DejaVuSans-61" x="974.121094"/>
     <use xlink:href="#DejaVuSans-74" x="1035.400391"/>
     <use xlink:href="#DejaVuSans-69" x="1074.609375"/>
     <use xlink:href="#DejaVuSans-6f" x="1102.392578"/>
     <use xlink:href="#DejaVuSans-6e" x="1163.574219"/>
     <use xlink:href="#DejaVuSans-61" x="1226.953125"/>
     <use xlink:href="#DejaVuSans-6c" x="1288.232422"/>
    </g>
   </g>
   <g id="line2d_93">
    <path d="M 266.448438 214.707813 
L 276.448438 214.707813 
L 286.448438 214.707813 
" style="fill: none; stroke: #2ca02c; stroke-width: 1.5; stroke-linecap: square"/>
   </g>
   <g id="text_33">
    <!-- Edge-based - rotational -->
    <g transform="translate(294.448438 218.207813) scale(0.1 -0.1)">
     <use xlink:href="#DejaVuSans-45"/>
     <use xlink:href="#DejaVuSans-64" x="63.183594"/>
     <use xlink:href="#DejaVuSans-67" x="126.660156"/>
     <use xlink:href="#DejaVuSans-65" x="190.136719"/>
     <use xlink:href="#DejaVuSans-2d" x="251.660156"/>
     <use xlink:href="#DejaVuSans-62" x="287.744141"/>
     <use xlink:href="#DejaVuSans-61" x="351.220703"/>
     <use xlink:href="#DejaVuSans-73" x="412.5"/>
     <use xlink:href="#DejaVuSans-65" x="464.599609"/>
     <use xlink:href="#DejaVuSans-64" x="526.123047"/>
     <use xlink:href="#DejaVuSans-20" x="589.599609"/>
     <use xlink:href="#DejaVuSans-2d" x="621.386719"/>
     <use xlink:href="#DejaVuSans-20" x="657.470703"/>
     <use xlink:href="#DejaVuSans-72" x="689.257812"/>
     <use xlink:href="#DejaVuSans-6f" x="728.121094"/>
     <use xlink:href="#DejaVuSans-74" x="789.302734"/>
     <use xlink:href="#DejaVuSans-61" x="828.511719"/>
     <use xlink:href="#DejaVuSans-74" x="889.791016"/>
     <use xlink:href="#DejaVuSans-69" x="929"/>
     <use xlink:href="#DejaVuSans-6f" x="956.783203"/>
     <use xlink:href="#DejaVuSans-6e" x="1017.964844"/>
     <use xlink:href="#DejaVuSans-61" x="1081.34375"/>
     <use xlink:href="#DejaVuSans-6c" x="1142.623047"/>
    </g>
   </g>
   <g id="line2d_94">
    <path d="M 266.448438 229.385938 
L 276.448438 229.385938 
L 286.448438 229.385938 
" style="fill: none; stroke: #d62728; stroke-width: 1.5; stroke-linecap: square"/>
   </g>
   <g id="text_34">
    <!-- Edge-based - reflective -->
    <g transform="translate(294.448438 232.885938) scale(0.1 -0.1)">
     <defs>
      <path id="DejaVuSans-66" d="M 2375 4863 
L 2375 4384 
L 1825 4384 
Q 1516 4384 1395 4259 
Q 1275 4134 1275 3809 
L 1275 3500 
L 2222 3500 
L 2222 3053 
L 1275 3053 
L 1275 0 
L 697 0 
L 697 3053 
L 147 3053 
L 147 3500 
L 697 3500 
L 697 3744 
Q 697 4328 969 4595 
Q 1241 4863 1831 4863 
L 2375 4863 
z
" transform="scale(0.015625)"/>
      <path id="DejaVuSans-63" d="M 3122 3366 
L 3122 2828 
Q 2878 2963 2633 3030 
Q 2388 3097 2138 3097 
Q 1578 3097 1268 2742 
Q 959 2388 959 1747 
Q 959 1106 1268 751 
Q 1578 397 2138 397 
Q 2388 397 2633 464 
Q 2878 531 3122 666 
L 3122 134 
Q 2881 22 2623 -34 
Q 2366 -91 2075 -91 
Q 1284 -91 818 406 
Q 353 903 353 1747 
Q 353 2603 823 3093 
Q 1294 3584 2113 3584 
Q 2378 3584 2631 3529 
Q 2884 3475 3122 3366 
z
" transform="scale(0.015625)"/>
      <path id="DejaVuSans-76" d="M 191 3500 
L 800 3500 
L 1894 563 
L 2988 3500 
L 3597 3500 
L 2284 0 
L 1503 0 
L 191 3500 
z
" transform="scale(0.015625)"/>
     </defs>
     <use xlink:href="#DejaVuSans-45"/>
     <use xlink:href="#DejaVuSans-64" x="63.183594"/>
     <use xlink:href="#DejaVuSans-67" x="126.660156"/>
     <use xlink:href="#DejaVuSans-65" x="190.136719"/>
     <use xlink:href="#DejaVuSans-2d" x="251.660156"/>
     <use xlink:href="#DejaVuSans-62" x="287.744141"/>
     <use xlink:href="#DejaVuSans-61" x="351.220703"/>
     <use xlink:href="#DejaVuSans-73" x="412.5"/>
     <use xlink:href="#DejaVuSans-65" x="464.599609"/>
     <use xlink:href="#DejaVuSans-64" x="526.123047"/>
     <use xlink:href="#DejaVuSans-20" x="589.599609"/>
     <use xlink:href="#DejaVuSans-2d" x="621.386719"/>
     <use xlink:href="#DejaVuSans-20" x="657.470703"/>
     <use xlink:href="#DejaVuSans-72" x="689.257812"/>
     <use xlink:href="#DejaVuSans-65" x="728.121094"/>
     <use xlink:href="#DejaVuSans-66" x="789.644531"/>
     <use xlink:href="#DejaVuSans-6c" x="824.849609"/>
     <use xlink:href="#DejaVuSans-65" x="852.632812"/>
     <use xlink:href="#DejaVuSans-63" x="914.15625"/>
     <use xlink:href="#DejaVuSans-74" x="969.136719"/>
     <use xlink:href="#DejaVuSans-69" x="1008.345703"/>
     <use xlink:href="#DejaVuSans-76" x="1036.128906"/>
     <use xlink:href="#DejaVuSans-65" x="1095.308594"/>
    </g>
   </g>
   <g id="line2d_95">
    <path d="M 266.448438 244.064063 
L 276.448438 244.064063 
L 286.448438 244.064063 
" style="fill: none; stroke: #9467bd; stroke-width: 1.5; stroke-linecap: square"/>
   </g>
   <g id="text_35">
    <!-- Stress-based -->
    <g transform="translate(294.448438 247.564063) scale(0.1 -0.1)">
     <defs>
      <path id="DejaVuSans-53" d="M 3425 4513 
L 3425 3897 
Q 3066 4069 2747 4153 
Q 2428 4238 2131 4238 
Q 1616 4238 1336 4038 
Q 1056 3838 1056 3469 
Q 1056 3159 1242 3001 
Q 1428 2844 1947 2747 
L 2328 2669 
Q 3034 2534 3370 2195 
Q 3706 1856 3706 1288 
Q 3706 609 3251 259 
Q 2797 -91 1919 -91 
Q 1588 -91 1214 -16 
Q 841 59 441 206 
L 441 856 
Q 825 641 1194 531 
Q 1563 422 1919 422 
Q 2459 422 2753 634 
Q 3047 847 3047 1241 
Q 3047 1584 2836 1778 
Q 2625 1972 2144 2069 
L 1759 2144 
Q 1053 2284 737 2584 
Q 422 2884 422 3419 
Q 422 4038 858 4394 
Q 1294 4750 2059 4750 
Q 2388 4750 2728 4690 
Q 3069 4631 3425 4513 
z
" transform="scale(0.015625)"/>
     </defs>
     <use xlink:href="#DejaVuSans-53"/>
     <use xlink:href="#DejaVuSans-74" x="63.476562"/>
     <use xlink:href="#DejaVuSans-72" x="102.685547"/>
     <use xlink:href="#DejaVuSans-65" x="141.548828"/>
     <use xlink:href="#DejaVuSans-73" x="203.072266"/>
     <use xlink:href="#DejaVuSans-73" x="255.171875"/>
     <use xlink:href="#DejaVuSans-2d" x="307.271484"/>
     <use xlink:href="#DejaVuSans-62" x="343.355469"/>
     <use xlink:href="#DejaVuSans-61" x="406.832031"/>
     <use xlink:href="#DejaVuSans-73" x="468.111328"/>
     <use xlink:href="#DejaVuSans-65" x="520.210938"/>
     <use xlink:href="#DejaVuSans-64" x="581.734375"/>
    </g>
   </g>
   <g id="line2d_96">
    <path d="M 266.448438 258.742188 
L 276.448438 258.742188 
L 286.448438 258.742188 
" style="fill: none; stroke: #8c564b; stroke-width: 1.5; stroke-linecap: square"/>
   </g>
   <g id="text_36">
    <!-- Even neighborhood distribution -->
    <g transform="translate(294.448438 262.242188) scale(0.1 -0.1)">
     <defs>
      <path id="DejaVuSans-68" d="M 3513 2113 
L 3513 0 
L 2938 0 
L 2938 2094 
Q 2938 2591 2744 2837 
Q 2550 3084 2163 3084 
Q 1697 3084 1428 2787 
Q 1159 2491 1159 1978 
L 1159 0 
L 581 0 
L 581 4863 
L 1159 4863 
L 1159 2956 
Q 1366 3272 1645 3428 
Q 1925 3584 2291 3584 
Q 2894 3584 3203 3211 
Q 3513 2838 3513 2113 
z
" transform="scale(0.015625)"/>
      <path id="DejaVuSans-75" d="M 544 1381 
L 544 3500 
L 1119 3500 
L 1119 1403 
Q 1119 906 1312 657 
Q 1506 409 1894 409 
Q 2359 409 2629 706 
Q 2900 1003 2900 1516 
L 2900 3500 
L 3475 3500 
L 3475 0 
L 2900 0 
L 2900 538 
Q 2691 219 2414 64 
Q 2138 -91 1772 -91 
Q 1169 -91 856 284 
Q 544 659 544 1381 
z
M 1991 3584 
L 1991 3584 
z
" transform="scale(0.015625)"/>
     </defs>
     <use xlink:href="#DejaVuSans-45"/>
     <use xlink:href="#DejaVuSans-76" x="63.183594"/>
     <use xlink:href="#DejaVuSans-65" x="122.363281"/>
     <use xlink:href="#DejaVuSans-6e" x="183.886719"/>
     <use xlink:href="#DejaVuSans-20" x="247.265625"/>
     <use xlink:href="#DejaVuSans-6e" x="279.052734"/>
     <use xlink:href="#DejaVuSans-65" x="342.431641"/>
     <use xlink:href="#DejaVuSans-69" x="403.955078"/>
     <use xlink:href="#DejaVuSans-67" x="431.738281"/>
     <use xlink:href="#DejaVuSans-68" x="495.214844"/>
     <use xlink:href="#DejaVuSans-62" x="558.59375"/>
     <use xlink:href="#DejaVuSans-6f" x="622.070312"/>
     <use xlink:href="#DejaVuSans-72" x="683.251953"/>
     <use xlink:href="#DejaVuSans-68" x="722.615234"/>
     <use xlink:href="#DejaVuSans-6f" x="785.994141"/>
     <use xlink:href="#DejaVuSans-6f" x="847.175781"/>
     <use xlink:href="#DejaVuSans-64" x="908.357422"/>
     <use xlink:href="#DejaVuSans-20" x="971.833984"/>
     <use xlink:href="#DejaVuSans-64" x="1003.621094"/>
     <use xlink:href="#DejaVuSans-69" x="1067.097656"/>
     <use xlink:href="#DejaVuSans-73" x="1094.880859"/>
     <use xlink:href="#DejaVuSans-74" x="1146.980469"/>
     <use xlink:href="#DejaVuSans-72" x="1186.189453"/>
     <use xlink:href="#DejaVuSans-69" x="1227.302734"/>
     <use xlink:href="#DejaVuSans-62" x="1255.085938"/>
     <use xlink:href="#DejaVuSans-75" x="1318.5625"/>
     <use xlink:href="#DejaVuSans-74" x="1381.941406"/>
     <use xlink:href="#DejaVuSans-69" x="1421.150391"/>
     <use xlink:href="#DejaVuSans-6f" x="1448.933594"/>
     <use xlink:href="#DejaVuSans-6e" x="1510.115234"/>
    </g>
   </g>
   <g id="line2d_97">
    <path d="M 266.448438 273.420313 
L 276.448438 273.420313 
L 286.448438 273.420313 
" style="fill: none; stroke: #e377c2; stroke-width: 1.5; stroke-linecap: square"/>
   </g>
   <g id="text_37">
    <!-- Visual Symmetry -->
    <g transform="translate(294.448438 276.920313) scale(0.1 -0.1)">
     <defs>
      <path id="DejaVuSans-56" d="M 1831 0 
L 50 4666 
L 709 4666 
L 2188 738 
L 3669 4666 
L 4325 4666 
L 2547 0 
L 1831 0 
z
" transform="scale(0.015625)"/>
      <path id="DejaVuSans-79" d="M 2059 -325 
Q 1816 -950 1584 -1140 
Q 1353 -1331 966 -1331 
L 506 -1331 
L 506 -850 
L 844 -850 
Q 1081 -850 1212 -737 
Q 1344 -625 1503 -206 
L 1606 56 
L 191 3500 
L 800 3500 
L 1894 763 
L 2988 3500 
L 3597 3500 
L 2059 -325 
z
" transform="scale(0.015625)"/>
     </defs>
     <use xlink:href="#DejaVuSans-56"/>
     <use xlink:href="#DejaVuSans-69" x="66.158203"/>
     <use xlink:href="#DejaVuSans-73" x="93.941406"/>
     <use xlink:href="#DejaVuSans-75" x="146.041016"/>
     <use xlink:href="#DejaVuSans-61" x="209.419922"/>
     <use xlink:href="#DejaVuSans-6c" x="270.699219"/>
     <use xlink:href="#DejaVuSans-20" x="298.482422"/>
     <use xlink:href="#DejaVuSans-53" x="330.269531"/>
     <use xlink:href="#DejaVuSans-79" x="393.746094"/>
     <use xlink:href="#DejaVuSans-6d" x="452.925781"/>
     <use xlink:href="#DejaVuSans-6d" x="550.337891"/>
     <use xlink:href="#DejaVuSans-65" x="647.75"/>
     <use xlink:href="#DejaVuSans-74" x="709.273438"/>
     <use xlink:href="#DejaVuSans-72" x="748.482422"/>
     <use xlink:href="#DejaVuSans-79" x="789.595703"/>
    </g>
   </g>
  </g>
 </g>
 <defs>
  <clipPath id="pe53fb237c4">
   <rect x="55.772054" y="26.88" width="169.227946" height="80.56"/>
  </clipPath>
  <clipPath id="pbb4b21497f">
   <rect x="280.772054" y="26.88" width="169.227946" height="80.56"/>
  </clipPath>
  <clipPath id="p7b5cf02e1a">
   <rect x="55.772054" y="165.48" width="169.227946" height="80.56"/>
  </clipPath>
 </defs>
</svg>
